<?xml version="1.0" encoding="utf-8" standalone="no"?>
<!DOCTYPE svg PUBLIC "-//W3C//DTD SVG 1.1//EN"
  "http://www.w3.org/Graphics/SVG/1.1/DTD/svg11.dtd">
<svg xmlns:xlink="http://www.w3.org/1999/xlink" width="450.171423pt" height="260.318063pt" viewBox="0 0 450.171423 260.318063" xmlns="http://www.w3.org/2000/svg" version="1.1">
 <metadata>
  <rdf:RDF xmlns:dc="http://purl.org/dc/elements/1.1/" xmlns:cc="http://creativecommons.org/ns#" xmlns:rdf="http://www.w3.org/1999/02/22-rdf-syntax-ns#">
   <cc:Work>
    <dc:type rdf:resource="http://purl.org/dc/dcmitype/StillImage"/>
    <dc:date>2025-11-24T23:37:41.917700</dc:date>
    <dc:format>image/svg+xml</dc:format>
    <dc:creator>
     <cc:Agent>
      <dc:title>Matplotlib v3.10.7, https://matplotlib.org/</dc:title>
     </cc:Agent>
    </dc:creator>
   </cc:Work>
  </rdf:RDF>
 </metadata>
 <defs>
  <style type="text/css">*{stroke-linejoin: round; stroke-linecap: butt}</style>
 </defs>
 <g id="figure_1">
  <g id="patch_1">
   <path d="M 0 260.318063 
L 450.171423 260.318063 
L 450.171423 0 
L 0 0 
z
" style="fill: #ffffff"/>
  </g>
  <g id="axes_1">
   <g id="patch_2">
    <path d="M 52.032813 223.1165 
L 431.472812 223.1165 
L 431.472812 23.5325 
L 52.032813 23.5325 
z
" style="fill: #ffffff"/>
   </g>
   <g id="line2d_1">
    <path clip-path="url(#pbffea6c477)" style="fill: none; stroke-dasharray: 3.7,1.6; stroke-dashoffset: 0; stroke: #4c4c4c"/>
   </g>
   <g id="matplotlib.axis_1">
    <g id="xtick_1">
     <g id="line2d_2">
      <path d="M 166.179832 223.1165 
L 166.179832 23.5325 
" clip-path="url(#pbffea6c477)" style="fill: none; stroke-dasharray: 1.85,0.8; stroke-dashoffset: 0; stroke: #b0b0b0; stroke-opacity: 0.45; stroke-width: 0.5"/>
     </g>
     <g id="line2d_3">
      <defs>
       <path id="mc7480aae09" d="M 0 0 
L 0 3.5 
" style="stroke: #000000; stroke-width: 0.8"/>
      </defs>
      <g>
       <use xlink:href="#mc7480aae09" x="166.179832" y="223.1165" style="stroke: #000000; stroke-width: 0.8"/>
      </g>
     </g>
     <g id="text_1">
      <!-- $\mathdefault{10^{0}}$ -->
      <g transform="translate(159.834832 238.091344) scale(0.09 -0.09)">
       <defs>
        <path id="TimesNewRomanPSMT-31" d="M 750 3822 
L 1781 4325 
L 1884 4325 
L 1884 747 
Q 1884 391 1914 303 
Q 1944 216 2037 169 
Q 2131 122 2419 116 
L 2419 0 
L 825 0 
L 825 116 
Q 1125 122 1212 167 
Q 1300 213 1334 289 
Q 1369 366 1369 747 
L 1369 3034 
Q 1369 3497 1338 3628 
Q 1316 3728 1258 3775 
Q 1200 3822 1119 3822 
Q 1003 3822 797 3725 
L 750 3822 
z
" transform="scale(0.015625)"/>
        <path id="TimesNewRomanPSMT-30" d="M 231 2094 
Q 231 2819 450 3342 
Q 669 3866 1031 4122 
Q 1313 4325 1613 4325 
Q 2100 4325 2488 3828 
Q 2972 3213 2972 2159 
Q 2972 1422 2759 906 
Q 2547 391 2217 158 
Q 1888 -75 1581 -75 
Q 975 -75 572 641 
Q 231 1244 231 2094 
z
M 844 2016 
Q 844 1141 1059 588 
Q 1238 122 1591 122 
Q 1759 122 1940 273 
Q 2122 425 2216 781 
Q 2359 1319 2359 2297 
Q 2359 3022 2209 3506 
Q 2097 3866 1919 4016 
Q 1791 4119 1609 4119 
Q 1397 4119 1231 3928 
Q 1006 3669 925 3112 
Q 844 2556 844 2016 
z
" transform="scale(0.015625)"/>
       </defs>
       <use xlink:href="#TimesNewRomanPSMT-31" transform="translate(0 0.582813)"/>
       <use xlink:href="#TimesNewRomanPSMT-30" transform="translate(50 0.582813)"/>
       <use xlink:href="#TimesNewRomanPSMT-30" transform="translate(101.502813 60.695312) scale(0.7)"/>
      </g>
     </g>
    </g>
    <g id="xtick_2">
     <g id="line2d_4">
      <path d="M 285.726784 223.1165 
L 285.726784 23.5325 
" clip-path="url(#pbffea6c477)" style="fill: none; stroke-dasharray: 1.85,0.8; stroke-dashoffset: 0; stroke: #b0b0b0; stroke-opacity: 0.45; stroke-width: 0.5"/>
     </g>
     <g id="line2d_5">
      <g>
       <use xlink:href="#mc7480aae09" x="285.726784" y="223.1165" style="stroke: #000000; stroke-width: 0.8"/>
      </g>
     </g>
     <g id="text_2">
      <!-- $\mathdefault{10^{1}}$ -->
      <g transform="translate(279.381784 238.091344) scale(0.09 -0.09)">
       <use xlink:href="#TimesNewRomanPSMT-31" transform="translate(0 0.582813)"/>
       <use xlink:href="#TimesNewRomanPSMT-30" transform="translate(50 0.582813)"/>
       <use xlink:href="#TimesNewRomanPSMT-31" transform="translate(101.502813 60.695312) scale(0.7)"/>
      </g>
     </g>
    </g>
    <g id="xtick_3">
     <g id="line2d_6">
      <path d="M 405.273736 223.1165 
L 405.273736 23.5325 
" clip-path="url(#pbffea6c477)" style="fill: none; stroke-dasharray: 1.85,0.8; stroke-dashoffset: 0; stroke: #b0b0b0; stroke-opacity: 0.45; stroke-width: 0.5"/>
     </g>
     <g id="line2d_7">
      <g>
       <use xlink:href="#mc7480aae09" x="405.273736" y="223.1165" style="stroke: #000000; stroke-width: 0.8"/>
      </g>
     </g>
     <g id="text_3">
      <!-- $\mathdefault{10^{2}}$ -->
      <g transform="translate(398.928736 238.091344) scale(0.09 -0.09)">
       <defs>
        <path id="TimesNewRomanPSMT-32" d="M 2934 816 
L 2638 0 
L 138 0 
L 138 116 
Q 1241 1122 1691 1759 
Q 2141 2397 2141 2925 
Q 2141 3328 1894 3587 
Q 1647 3847 1303 3847 
Q 991 3847 742 3664 
Q 494 3481 375 3128 
L 259 3128 
Q 338 3706 661 4015 
Q 984 4325 1469 4325 
Q 1984 4325 2329 3994 
Q 2675 3663 2675 3213 
Q 2675 2891 2525 2569 
Q 2294 2063 1775 1497 
Q 997 647 803 472 
L 1909 472 
Q 2247 472 2383 497 
Q 2519 522 2628 598 
Q 2738 675 2819 816 
L 2934 816 
z
" transform="scale(0.015625)"/>
       </defs>
       <use xlink:href="#TimesNewRomanPSMT-31" transform="translate(0 0.582813)"/>
       <use xlink:href="#TimesNewRomanPSMT-30" transform="translate(50 0.582813)"/>
       <use xlink:href="#TimesNewRomanPSMT-32" transform="translate(101.502813 60.695312) scale(0.7)"/>
      </g>
     </g>
    </g>
    <g id="text_4">
     <!-- ε (epsilon) [log scale] -->
     <g transform="translate(198.416875 250.96025) scale(0.1 -0.1)">
      <defs>
       <path id="TimesNewRomanPSMT-3b5" d="M 988 1516 
Q 372 1734 372 2178 
Q 372 2528 698 2737 
Q 1025 2947 1509 2947 
Q 1950 2947 2209 2801 
Q 2469 2656 2469 2453 
Q 2469 2347 2387 2267 
Q 2306 2188 2200 2188 
Q 2025 2188 1913 2431 
Q 1756 2769 1444 2769 
Q 1197 2769 1037 2606 
Q 878 2444 878 2153 
Q 878 1581 1469 1581 
Q 1531 1581 1613 1594 
Q 1753 1613 1831 1613 
Q 2022 1613 2022 1503 
Q 2022 1381 1828 1381 
Q 1759 1381 1622 1403 
Q 1519 1422 1463 1422 
Q 838 1422 838 784 
Q 838 475 1003 286 
Q 1169 97 1466 97 
Q 1838 97 1959 481 
Q 2022 684 2098 762 
Q 2175 841 2303 841 
Q 2409 841 2495 764 
Q 2581 688 2581 569 
Q 2581 284 2262 98 
Q 1944 -88 1491 -88 
Q 994 -88 608 150 
Q 222 388 222 784 
Q 222 1281 988 1516 
z
" transform="scale(0.015625)"/>
       <path id="TimesNewRomanPSMT-20" transform="scale(0.015625)"/>
       <path id="TimesNewRomanPSMT-28" d="M 1988 -1253 
L 1988 -1369 
Q 1516 -1131 1200 -813 
Q 750 -359 506 256 
Q 263 872 263 1534 
Q 263 2503 741 3301 
Q 1219 4100 1988 4444 
L 1988 4313 
Q 1603 4100 1356 3731 
Q 1109 3363 987 2797 
Q 866 2231 866 1616 
Q 866 947 969 400 
Q 1050 -31 1165 -292 
Q 1281 -553 1476 -793 
Q 1672 -1034 1988 -1253 
z
" transform="scale(0.015625)"/>
       <path id="TimesNewRomanPSMT-65" d="M 681 1784 
Q 678 1147 991 784 
Q 1303 422 1725 422 
Q 2006 422 2214 576 
Q 2422 731 2563 1106 
L 2659 1044 
Q 2594 616 2278 264 
Q 1963 -88 1488 -88 
Q 972 -88 605 314 
Q 238 716 238 1394 
Q 238 2128 614 2539 
Q 991 2950 1559 2950 
Q 2041 2950 2350 2633 
Q 2659 2316 2659 1784 
L 681 1784 
z
M 681 1966 
L 2006 1966 
Q 1991 2241 1941 2353 
Q 1863 2528 1708 2628 
Q 1553 2728 1384 2728 
Q 1125 2728 920 2526 
Q 716 2325 681 1966 
z
" transform="scale(0.015625)"/>
       <path id="TimesNewRomanPSMT-70" d="M -6 2578 
L 875 2934 
L 994 2934 
L 994 2266 
Q 1216 2644 1439 2795 
Q 1663 2947 1909 2947 
Q 2341 2947 2628 2609 
Q 2981 2197 2981 1534 
Q 2981 794 2556 309 
Q 2206 -88 1675 -88 
Q 1444 -88 1275 -22 
Q 1150 25 994 166 
L 994 -706 
Q 994 -1000 1030 -1079 
Q 1066 -1159 1155 -1206 
Q 1244 -1253 1478 -1253 
L 1478 -1369 
L -22 -1369 
L -22 -1253 
L 56 -1253 
Q 228 -1256 350 -1188 
Q 409 -1153 442 -1076 
Q 475 -1000 475 -688 
L 475 2019 
Q 475 2297 450 2372 
Q 425 2447 370 2484 
Q 316 2522 222 2522 
Q 147 2522 31 2478 
L -6 2578 
z
M 994 2081 
L 994 1013 
Q 994 666 1022 556 
Q 1066 375 1236 237 
Q 1406 100 1666 100 
Q 1978 100 2172 344 
Q 2425 663 2425 1241 
Q 2425 1897 2138 2250 
Q 1938 2494 1663 2494 
Q 1513 2494 1366 2419 
Q 1253 2363 994 2081 
z
" transform="scale(0.015625)"/>
       <path id="TimesNewRomanPSMT-73" d="M 2050 2947 
L 2050 1972 
L 1947 1972 
Q 1828 2431 1642 2597 
Q 1456 2763 1169 2763 
Q 950 2763 815 2647 
Q 681 2531 681 2391 
Q 681 2216 781 2091 
Q 878 1963 1175 1819 
L 1631 1597 
Q 2266 1288 2266 781 
Q 2266 391 1970 151 
Q 1675 -88 1309 -88 
Q 1047 -88 709 6 
Q 606 38 541 38 
Q 469 38 428 -44 
L 325 -44 
L 325 978 
L 428 978 
Q 516 541 762 319 
Q 1009 97 1316 97 
Q 1531 97 1667 223 
Q 1803 350 1803 528 
Q 1803 744 1651 891 
Q 1500 1038 1047 1263 
Q 594 1488 453 1669 
Q 313 1847 313 2119 
Q 313 2472 555 2709 
Q 797 2947 1181 2947 
Q 1350 2947 1591 2875 
Q 1750 2828 1803 2828 
Q 1853 2828 1881 2850 
Q 1909 2872 1947 2947 
L 2050 2947 
z
" transform="scale(0.015625)"/>
       <path id="TimesNewRomanPSMT-69" d="M 928 4444 
Q 1059 4444 1151 4351 
Q 1244 4259 1244 4128 
Q 1244 3997 1151 3903 
Q 1059 3809 928 3809 
Q 797 3809 703 3903 
Q 609 3997 609 4128 
Q 609 4259 701 4351 
Q 794 4444 928 4444 
z
M 1188 2947 
L 1188 647 
Q 1188 378 1227 289 
Q 1266 200 1342 156 
Q 1419 113 1622 113 
L 1622 0 
L 231 0 
L 231 113 
Q 441 113 512 153 
Q 584 194 626 287 
Q 669 381 669 647 
L 669 1750 
Q 669 2216 641 2353 
Q 619 2453 572 2492 
Q 525 2531 444 2531 
Q 356 2531 231 2484 
L 188 2597 
L 1050 2947 
L 1188 2947 
z
" transform="scale(0.015625)"/>
       <path id="TimesNewRomanPSMT-6c" d="M 1184 4444 
L 1184 647 
Q 1184 378 1223 290 
Q 1263 203 1344 158 
Q 1425 113 1647 113 
L 1647 0 
L 244 0 
L 244 113 
Q 441 113 512 153 
Q 584 194 625 287 
Q 666 381 666 647 
L 666 3247 
Q 666 3731 644 3842 
Q 622 3953 573 3993 
Q 525 4034 450 4034 
Q 369 4034 244 3984 
L 191 4094 
L 1044 4444 
L 1184 4444 
z
" transform="scale(0.015625)"/>
       <path id="TimesNewRomanPSMT-6f" d="M 1600 2947 
Q 2250 2947 2644 2453 
Q 2978 2031 2978 1484 
Q 2978 1100 2793 706 
Q 2609 313 2286 112 
Q 1963 -88 1566 -88 
Q 919 -88 538 428 
Q 216 863 216 1403 
Q 216 1797 411 2186 
Q 606 2575 925 2761 
Q 1244 2947 1600 2947 
z
M 1503 2744 
Q 1338 2744 1170 2645 
Q 1003 2547 900 2300 
Q 797 2053 797 1666 
Q 797 1041 1045 587 
Q 1294 134 1700 134 
Q 2003 134 2200 384 
Q 2397 634 2397 1244 
Q 2397 2006 2069 2444 
Q 1847 2744 1503 2744 
z
" transform="scale(0.015625)"/>
       <path id="TimesNewRomanPSMT-6e" d="M 1034 2341 
Q 1538 2947 1994 2947 
Q 2228 2947 2397 2830 
Q 2566 2713 2666 2444 
Q 2734 2256 2734 1869 
L 2734 647 
Q 2734 375 2778 278 
Q 2813 200 2889 156 
Q 2966 113 3172 113 
L 3172 0 
L 1756 0 
L 1756 113 
L 1816 113 
Q 2016 113 2095 173 
Q 2175 234 2206 353 
Q 2219 400 2219 647 
L 2219 1819 
Q 2219 2209 2117 2386 
Q 2016 2563 1775 2563 
Q 1403 2563 1034 2156 
L 1034 647 
Q 1034 356 1069 288 
Q 1113 197 1189 155 
Q 1266 113 1500 113 
L 1500 0 
L 84 0 
L 84 113 
L 147 113 
Q 366 113 442 223 
Q 519 334 519 647 
L 519 1709 
Q 519 2225 495 2337 
Q 472 2450 423 2490 
Q 375 2531 294 2531 
Q 206 2531 84 2484 
L 38 2597 
L 900 2947 
L 1034 2947 
L 1034 2341 
z
" transform="scale(0.015625)"/>
       <path id="TimesNewRomanPSMT-29" d="M 144 4313 
L 144 4444 
Q 619 4209 934 3891 
Q 1381 3434 1625 2820 
Q 1869 2206 1869 1541 
Q 1869 572 1392 -226 
Q 916 -1025 144 -1369 
L 144 -1253 
Q 528 -1038 776 -670 
Q 1025 -303 1145 264 
Q 1266 831 1266 1447 
Q 1266 2113 1163 2663 
Q 1084 3094 967 3353 
Q 850 3613 656 3853 
Q 463 4094 144 4313 
z
" transform="scale(0.015625)"/>
       <path id="TimesNewRomanPSMT-5b" d="M 1900 -1269 
L 525 -1269 
L 525 4334 
L 1900 4334 
L 1900 4088 
L 994 4088 
L 994 -1025 
L 1900 -1025 
L 1900 -1269 
z
" transform="scale(0.015625)"/>
       <path id="TimesNewRomanPSMT-67" d="M 966 1044 
Q 703 1172 562 1401 
Q 422 1631 422 1909 
Q 422 2334 742 2640 
Q 1063 2947 1563 2947 
Q 1972 2947 2272 2747 
L 2878 2747 
Q 3013 2747 3034 2739 
Q 3056 2731 3066 2713 
Q 3084 2684 3084 2613 
Q 3084 2531 3069 2500 
Q 3059 2484 3036 2475 
Q 3013 2466 2878 2466 
L 2506 2466 
Q 2681 2241 2681 1891 
Q 2681 1491 2375 1206 
Q 2069 922 1553 922 
Q 1341 922 1119 984 
Q 981 866 932 777 
Q 884 688 884 625 
Q 884 572 936 522 
Q 988 472 1138 450 
Q 1225 438 1575 428 
Q 2219 413 2409 384 
Q 2700 344 2873 169 
Q 3047 -6 3047 -263 
Q 3047 -616 2716 -925 
Q 2228 -1381 1444 -1381 
Q 841 -1381 425 -1109 
Q 191 -953 191 -784 
Q 191 -709 225 -634 
Q 278 -519 444 -313 
Q 466 -284 763 25 
Q 600 122 533 198 
Q 466 275 466 372 
Q 466 481 555 628 
Q 644 775 966 1044 
z
M 1509 2797 
Q 1278 2797 1122 2612 
Q 966 2428 966 2047 
Q 966 1553 1178 1281 
Q 1341 1075 1591 1075 
Q 1828 1075 1981 1253 
Q 2134 1431 2134 1813 
Q 2134 2309 1919 2591 
Q 1759 2797 1509 2797 
z
M 934 0 
Q 788 -159 713 -296 
Q 638 -434 638 -550 
Q 638 -700 819 -813 
Q 1131 -1006 1722 -1006 
Q 2284 -1006 2551 -807 
Q 2819 -609 2819 -384 
Q 2819 -222 2659 -153 
Q 2497 -84 2016 -72 
Q 1313 -53 934 0 
z
" transform="scale(0.015625)"/>
       <path id="TimesNewRomanPSMT-63" d="M 2631 1088 
Q 2516 522 2178 217 
Q 1841 -88 1431 -88 
Q 944 -88 581 321 
Q 219 731 219 1428 
Q 219 2103 620 2525 
Q 1022 2947 1584 2947 
Q 2006 2947 2278 2723 
Q 2550 2500 2550 2259 
Q 2550 2141 2473 2067 
Q 2397 1994 2259 1994 
Q 2075 1994 1981 2113 
Q 1928 2178 1911 2362 
Q 1894 2547 1784 2644 
Q 1675 2738 1481 2738 
Q 1169 2738 978 2506 
Q 725 2200 725 1697 
Q 725 1184 976 792 
Q 1228 400 1656 400 
Q 1963 400 2206 609 
Q 2378 753 2541 1131 
L 2631 1088 
z
" transform="scale(0.015625)"/>
       <path id="TimesNewRomanPSMT-61" d="M 1822 413 
Q 1381 72 1269 19 
Q 1100 -59 909 -59 
Q 613 -59 420 144 
Q 228 347 228 678 
Q 228 888 322 1041 
Q 450 1253 767 1440 
Q 1084 1628 1822 1897 
L 1822 2009 
Q 1822 2438 1686 2597 
Q 1550 2756 1291 2756 
Q 1094 2756 978 2650 
Q 859 2544 859 2406 
L 866 2225 
Q 866 2081 792 2003 
Q 719 1925 600 1925 
Q 484 1925 411 2006 
Q 338 2088 338 2228 
Q 338 2497 613 2722 
Q 888 2947 1384 2947 
Q 1766 2947 2009 2819 
Q 2194 2722 2281 2516 
Q 2338 2381 2338 1966 
L 2338 994 
Q 2338 584 2353 492 
Q 2369 400 2405 369 
Q 2441 338 2488 338 
Q 2538 338 2575 359 
Q 2641 400 2828 588 
L 2828 413 
Q 2478 -56 2159 -56 
Q 2006 -56 1915 50 
Q 1825 156 1822 413 
z
M 1822 616 
L 1822 1706 
Q 1350 1519 1213 1441 
Q 966 1303 859 1153 
Q 753 1003 753 825 
Q 753 600 887 451 
Q 1022 303 1197 303 
Q 1434 303 1822 616 
z
" transform="scale(0.015625)"/>
       <path id="TimesNewRomanPSMT-5d" d="M 234 4334 
L 1609 4334 
L 1609 -1272 
L 234 -1272 
L 234 -1025 
L 1141 -1025 
L 1141 4088 
L 234 4088 
L 234 4334 
z
" transform="scale(0.015625)"/>
      </defs>
      <use xlink:href="#TimesNewRomanPSMT-3b5"/>
      <use xlink:href="#TimesNewRomanPSMT-20" transform="translate(41.992188 0)"/>
      <use xlink:href="#TimesNewRomanPSMT-28" transform="translate(66.992188 0)"/>
      <use xlink:href="#TimesNewRomanPSMT-65" transform="translate(100.292969 0)"/>
      <use xlink:href="#TimesNewRomanPSMT-70" transform="translate(144.677734 0)"/>
      <use xlink:href="#TimesNewRomanPSMT-73" transform="translate(194.677734 0)"/>
      <use xlink:href="#TimesNewRomanPSMT-69" transform="translate(233.59375 0)"/>
      <use xlink:href="#TimesNewRomanPSMT-6c" transform="translate(261.376953 0)"/>
      <use xlink:href="#TimesNewRomanPSMT-6f" transform="translate(289.160156 0)"/>
      <use xlink:href="#TimesNewRomanPSMT-6e" transform="translate(339.160156 0)"/>
      <use xlink:href="#TimesNewRomanPSMT-29" transform="translate(389.160156 0)"/>
      <use xlink:href="#TimesNewRomanPSMT-20" transform="translate(422.460938 0)"/>
      <use xlink:href="#TimesNewRomanPSMT-5b" transform="translate(447.460938 0)"/>
      <use xlink:href="#TimesNewRomanPSMT-6c" transform="translate(480.761719 0)"/>
      <use xlink:href="#TimesNewRomanPSMT-6f" transform="translate(508.544922 0)"/>
      <use xlink:href="#TimesNewRomanPSMT-67" transform="translate(558.544922 0)"/>
      <use xlink:href="#TimesNewRomanPSMT-20" transform="translate(608.544922 0)"/>
      <use xlink:href="#TimesNewRomanPSMT-73" transform="translate(633.544922 0)"/>
      <use xlink:href="#TimesNewRomanPSMT-63" transform="translate(672.460938 0)"/>
      <use xlink:href="#TimesNewRomanPSMT-61" transform="translate(716.845703 0)"/>
      <use xlink:href="#TimesNewRomanPSMT-6c" transform="translate(761.230469 0)"/>
      <use xlink:href="#TimesNewRomanPSMT-65" transform="translate(789.013672 0)"/>
      <use xlink:href="#TimesNewRomanPSMT-5d" transform="translate(833.398438 0)"/>
     </g>
    </g>
   </g>
   <g id="matplotlib.axis_2">
    <g id="ytick_1">
     <g id="line2d_8">
      <path d="M 52.032813 189.8525 
L 431.472812 189.8525 
" clip-path="url(#pbffea6c477)" style="fill: none; stroke-dasharray: 1.85,0.8; stroke-dashoffset: 0; stroke: #b0b0b0; stroke-opacity: 0.45; stroke-width: 0.5"/>
     </g>
     <g id="line2d_9">
      <defs>
       <path id="mbdf69cc452" d="M 0 0 
L -3.5 0 
" style="stroke: #000000; stroke-width: 0.8"/>
      </defs>
      <g>
       <use xlink:href="#mbdf69cc452" x="52.032813" y="189.8525" style="stroke: #000000; stroke-width: 0.8"/>
      </g>
     </g>
     <g id="text_5">
      <!-- 0.8390 -->
      <g transform="translate(20.282813 192.977188) scale(0.09 -0.09)">
       <defs>
        <path id="TimesNewRomanPSMT-2e" d="M 800 606 
Q 947 606 1047 504 
Q 1147 403 1147 259 
Q 1147 116 1045 14 
Q 944 -88 800 -88 
Q 656 -88 554 14 
Q 453 116 453 259 
Q 453 406 554 506 
Q 656 606 800 606 
z
" transform="scale(0.015625)"/>
        <path id="TimesNewRomanPSMT-38" d="M 1228 2134 
Q 725 2547 579 2797 
Q 434 3047 434 3316 
Q 434 3728 753 4026 
Q 1072 4325 1600 4325 
Q 2113 4325 2425 4047 
Q 2738 3769 2738 3413 
Q 2738 3175 2569 2928 
Q 2400 2681 1866 2347 
Q 2416 1922 2594 1678 
Q 2831 1359 2831 1006 
Q 2831 559 2490 242 
Q 2150 -75 1597 -75 
Q 994 -75 656 303 
Q 388 606 388 966 
Q 388 1247 577 1523 
Q 766 1800 1228 2134 
z
M 1719 2469 
Q 2094 2806 2194 3001 
Q 2294 3197 2294 3444 
Q 2294 3772 2109 3958 
Q 1925 4144 1606 4144 
Q 1288 4144 1088 3959 
Q 888 3775 888 3528 
Q 888 3366 970 3203 
Q 1053 3041 1206 2894 
L 1719 2469 
z
M 1375 2016 
Q 1116 1797 991 1539 
Q 866 1281 866 981 
Q 866 578 1086 336 
Q 1306 94 1647 94 
Q 1984 94 2187 284 
Q 2391 475 2391 747 
Q 2391 972 2272 1150 
Q 2050 1481 1375 2016 
z
" transform="scale(0.015625)"/>
        <path id="TimesNewRomanPSMT-33" d="M 325 3431 
Q 506 3859 782 4092 
Q 1059 4325 1472 4325 
Q 1981 4325 2253 3994 
Q 2459 3747 2459 3466 
Q 2459 3003 1878 2509 
Q 2269 2356 2469 2072 
Q 2669 1788 2669 1403 
Q 2669 853 2319 450 
Q 1863 -75 997 -75 
Q 569 -75 414 31 
Q 259 138 259 259 
Q 259 350 332 419 
Q 406 488 509 488 
Q 588 488 669 463 
Q 722 447 909 348 
Q 1097 250 1169 231 
Q 1284 197 1416 197 
Q 1734 197 1970 444 
Q 2206 691 2206 1028 
Q 2206 1275 2097 1509 
Q 2016 1684 1919 1775 
Q 1784 1900 1550 2001 
Q 1316 2103 1072 2103 
L 972 2103 
L 972 2197 
Q 1219 2228 1467 2375 
Q 1716 2522 1828 2728 
Q 1941 2934 1941 3181 
Q 1941 3503 1739 3701 
Q 1538 3900 1238 3900 
Q 753 3900 428 3381 
L 325 3431 
z
" transform="scale(0.015625)"/>
        <path id="TimesNewRomanPSMT-39" d="M 338 -88 
L 338 28 
Q 744 34 1094 217 
Q 1444 400 1770 856 
Q 2097 1313 2225 1859 
Q 1734 1544 1338 1544 
Q 891 1544 572 1889 
Q 253 2234 253 2806 
Q 253 3363 572 3797 
Q 956 4325 1575 4325 
Q 2097 4325 2469 3894 
Q 2925 3359 2925 2575 
Q 2925 1869 2578 1258 
Q 2231 647 1613 244 
Q 1109 -88 516 -88 
L 338 -88 
z
M 2275 2091 
Q 2331 2497 2331 2741 
Q 2331 3044 2228 3395 
Q 2125 3747 1936 3934 
Q 1747 4122 1506 4122 
Q 1228 4122 1018 3872 
Q 809 3622 809 3128 
Q 809 2469 1088 2097 
Q 1291 1828 1588 1828 
Q 1731 1828 1928 1897 
Q 2125 1966 2275 2091 
z
" transform="scale(0.015625)"/>
       </defs>
       <use xlink:href="#TimesNewRomanPSMT-30"/>
       <use xlink:href="#TimesNewRomanPSMT-2e" transform="translate(50 0)"/>
       <use xlink:href="#TimesNewRomanPSMT-38" transform="translate(75 0)"/>
       <use xlink:href="#TimesNewRomanPSMT-33" transform="translate(125 0)"/>
       <use xlink:href="#TimesNewRomanPSMT-39" transform="translate(175 0)"/>
       <use xlink:href="#TimesNewRomanPSMT-30" transform="translate(225 0)"/>
      </g>
     </g>
    </g>
    <g id="ytick_2">
     <g id="line2d_10">
      <path d="M 52.032813 156.024703 
L 431.472812 156.024703 
" clip-path="url(#pbffea6c477)" style="fill: none; stroke-dasharray: 1.85,0.8; stroke-dashoffset: 0; stroke: #b0b0b0; stroke-opacity: 0.45; stroke-width: 0.5"/>
     </g>
     <g id="line2d_11">
      <g>
       <use xlink:href="#mbdf69cc452" x="52.032813" y="156.024703" style="stroke: #000000; stroke-width: 0.8"/>
      </g>
     </g>
     <g id="text_6">
      <!-- 0.8395 -->
      <g transform="translate(20.282813 159.149391) scale(0.09 -0.09)">
       <defs>
        <path id="TimesNewRomanPSMT-35" d="M 2778 4238 
L 2534 3706 
L 1259 3706 
L 981 3138 
Q 1809 3016 2294 2522 
Q 2709 2097 2709 1522 
Q 2709 1188 2573 903 
Q 2438 619 2231 419 
Q 2025 219 1772 97 
Q 1413 -75 1034 -75 
Q 653 -75 479 54 
Q 306 184 306 341 
Q 306 428 378 495 
Q 450 563 559 563 
Q 641 563 702 538 
Q 763 513 909 409 
Q 1144 247 1384 247 
Q 1750 247 2026 523 
Q 2303 800 2303 1197 
Q 2303 1581 2056 1914 
Q 1809 2247 1375 2428 
Q 1034 2569 447 2591 
L 1259 4238 
L 2778 4238 
z
" transform="scale(0.015625)"/>
       </defs>
       <use xlink:href="#TimesNewRomanPSMT-30"/>
       <use xlink:href="#TimesNewRomanPSMT-2e" transform="translate(50 0)"/>
       <use xlink:href="#TimesNewRomanPSMT-38" transform="translate(75 0)"/>
       <use xlink:href="#TimesNewRomanPSMT-33" transform="translate(125 0)"/>
       <use xlink:href="#TimesNewRomanPSMT-39" transform="translate(175 0)"/>
       <use xlink:href="#TimesNewRomanPSMT-35" transform="translate(225 0)"/>
      </g>
     </g>
    </g>
    <g id="ytick_3">
     <g id="line2d_12">
      <path d="M 52.032813 122.196907 
L 431.472812 122.196907 
" clip-path="url(#pbffea6c477)" style="fill: none; stroke-dasharray: 1.85,0.8; stroke-dashoffset: 0; stroke: #b0b0b0; stroke-opacity: 0.45; stroke-width: 0.5"/>
     </g>
     <g id="line2d_13">
      <g>
       <use xlink:href="#mbdf69cc452" x="52.032813" y="122.196907" style="stroke: #000000; stroke-width: 0.8"/>
      </g>
     </g>
     <g id="text_7">
      <!-- 0.8400 -->
      <g transform="translate(20.282813 125.321594) scale(0.09 -0.09)">
       <defs>
        <path id="TimesNewRomanPSMT-34" d="M 2978 1563 
L 2978 1119 
L 2409 1119 
L 2409 0 
L 1894 0 
L 1894 1119 
L 100 1119 
L 100 1519 
L 2066 4325 
L 2409 4325 
L 2409 1563 
L 2978 1563 
z
M 1894 1563 
L 1894 3666 
L 406 1563 
L 1894 1563 
z
" transform="scale(0.015625)"/>
       </defs>
       <use xlink:href="#TimesNewRomanPSMT-30"/>
       <use xlink:href="#TimesNewRomanPSMT-2e" transform="translate(50 0)"/>
       <use xlink:href="#TimesNewRomanPSMT-38" transform="translate(75 0)"/>
       <use xlink:href="#TimesNewRomanPSMT-34" transform="translate(125 0)"/>
       <use xlink:href="#TimesNewRomanPSMT-30" transform="translate(175 0)"/>
       <use xlink:href="#TimesNewRomanPSMT-30" transform="translate(225 0)"/>
      </g>
     </g>
    </g>
    <g id="ytick_4">
     <g id="line2d_14">
      <path d="M 52.032813 88.36911 
L 431.472812 88.36911 
" clip-path="url(#pbffea6c477)" style="fill: none; stroke-dasharray: 1.85,0.8; stroke-dashoffset: 0; stroke: #b0b0b0; stroke-opacity: 0.45; stroke-width: 0.5"/>
     </g>
     <g id="line2d_15">
      <g>
       <use xlink:href="#mbdf69cc452" x="52.032813" y="88.36911" style="stroke: #000000; stroke-width: 0.8"/>
      </g>
     </g>
     <g id="text_8">
      <!-- 0.8405 -->
      <g transform="translate(20.282813 91.493798) scale(0.09 -0.09)">
       <use xlink:href="#TimesNewRomanPSMT-30"/>
       <use xlink:href="#TimesNewRomanPSMT-2e" transform="translate(50 0)"/>
       <use xlink:href="#TimesNewRomanPSMT-38" transform="translate(75 0)"/>
       <use xlink:href="#TimesNewRomanPSMT-34" transform="translate(125 0)"/>
       <use xlink:href="#TimesNewRomanPSMT-30" transform="translate(175 0)"/>
       <use xlink:href="#TimesNewRomanPSMT-35" transform="translate(225 0)"/>
      </g>
     </g>
    </g>
    <g id="ytick_5">
     <g id="line2d_16">
      <path d="M 52.032813 54.541314 
L 431.472812 54.541314 
" clip-path="url(#pbffea6c477)" style="fill: none; stroke-dasharray: 1.85,0.8; stroke-dashoffset: 0; stroke: #b0b0b0; stroke-opacity: 0.45; stroke-width: 0.5"/>
     </g>
     <g id="line2d_17">
      <g>
       <use xlink:href="#mbdf69cc452" x="52.032813" y="54.541314" style="stroke: #000000; stroke-width: 0.8"/>
      </g>
     </g>
     <g id="text_9">
      <!-- 0.8410 -->
      <g transform="translate(20.282813 57.666001) scale(0.09 -0.09)">
       <use xlink:href="#TimesNewRomanPSMT-30"/>
       <use xlink:href="#TimesNewRomanPSMT-2e" transform="translate(50 0)"/>
       <use xlink:href="#TimesNewRomanPSMT-38" transform="translate(75 0)"/>
       <use xlink:href="#TimesNewRomanPSMT-34" transform="translate(125 0)"/>
       <use xlink:href="#TimesNewRomanPSMT-31" transform="translate(175 0)"/>
       <use xlink:href="#TimesNewRomanPSMT-30" transform="translate(225 0)"/>
      </g>
     </g>
    </g>
    <g id="text_10">
     <!-- Test accuracy -->
     <g transform="translate(14.125 150.595594) rotate(-90) scale(0.1 -0.1)">
      <defs>
       <path id="TimesNewRomanPSMT-54" d="M 3703 4238 
L 3750 3244 
L 3631 3244 
Q 3597 3506 3538 3619 
Q 3441 3800 3280 3886 
Q 3119 3972 2856 3972 
L 2259 3972 
L 2259 734 
Q 2259 344 2344 247 
Q 2463 116 2709 116 
L 2856 116 
L 2856 0 
L 1059 0 
L 1059 116 
L 1209 116 
Q 1478 116 1591 278 
Q 1659 378 1659 734 
L 1659 3972 
L 1150 3972 
Q 853 3972 728 3928 
Q 566 3869 450 3700 
Q 334 3531 313 3244 
L 194 3244 
L 244 4238 
L 3703 4238 
z
" transform="scale(0.015625)"/>
       <path id="TimesNewRomanPSMT-74" d="M 1031 3803 
L 1031 2863 
L 1700 2863 
L 1700 2644 
L 1031 2644 
L 1031 788 
Q 1031 509 1111 412 
Q 1191 316 1316 316 
Q 1419 316 1516 380 
Q 1613 444 1666 569 
L 1788 569 
Q 1678 263 1478 108 
Q 1278 -47 1066 -47 
Q 922 -47 784 33 
Q 647 113 581 261 
Q 516 409 516 719 
L 516 2644 
L 63 2644 
L 63 2747 
Q 234 2816 414 2980 
Q 594 3144 734 3369 
Q 806 3488 934 3803 
L 1031 3803 
z
" transform="scale(0.015625)"/>
       <path id="TimesNewRomanPSMT-75" d="M 2709 2863 
L 2709 1128 
Q 2709 631 2732 520 
Q 2756 409 2807 365 
Q 2859 322 2928 322 
Q 3025 322 3147 375 
L 3191 266 
L 2334 -88 
L 2194 -88 
L 2194 519 
Q 1825 119 1631 15 
Q 1438 -88 1222 -88 
Q 981 -88 804 51 
Q 628 191 559 409 
Q 491 628 491 1028 
L 491 2306 
Q 491 2509 447 2587 
Q 403 2666 317 2708 
Q 231 2750 6 2747 
L 6 2863 
L 1009 2863 
L 1009 947 
Q 1009 547 1148 422 
Q 1288 297 1484 297 
Q 1619 297 1789 381 
Q 1959 466 2194 703 
L 2194 2325 
Q 2194 2569 2105 2655 
Q 2016 2741 1734 2747 
L 1734 2863 
L 2709 2863 
z
" transform="scale(0.015625)"/>
       <path id="TimesNewRomanPSMT-72" d="M 1038 2947 
L 1038 2303 
Q 1397 2947 1775 2947 
Q 1947 2947 2059 2842 
Q 2172 2738 2172 2600 
Q 2172 2478 2090 2393 
Q 2009 2309 1897 2309 
Q 1788 2309 1652 2417 
Q 1516 2525 1450 2525 
Q 1394 2525 1328 2463 
Q 1188 2334 1038 2041 
L 1038 669 
Q 1038 431 1097 309 
Q 1138 225 1241 169 
Q 1344 113 1538 113 
L 1538 0 
L 72 0 
L 72 113 
Q 291 113 397 181 
Q 475 231 506 341 
Q 522 394 522 644 
L 522 1753 
Q 522 2253 501 2348 
Q 481 2444 426 2487 
Q 372 2531 291 2531 
Q 194 2531 72 2484 
L 41 2597 
L 906 2947 
L 1038 2947 
z
" transform="scale(0.015625)"/>
       <path id="TimesNewRomanPSMT-79" d="M 38 2863 
L 1372 2863 
L 1372 2747 
L 1306 2747 
Q 1166 2747 1095 2686 
Q 1025 2625 1025 2534 
Q 1025 2413 1128 2197 
L 1825 753 
L 2466 2334 
Q 2519 2463 2519 2588 
Q 2519 2644 2497 2672 
Q 2472 2706 2419 2726 
Q 2366 2747 2231 2747 
L 2231 2863 
L 3163 2863 
L 3163 2747 
Q 3047 2734 2984 2696 
Q 2922 2659 2847 2556 
Q 2819 2513 2741 2316 
L 1575 -541 
Q 1406 -956 1132 -1168 
Q 859 -1381 606 -1381 
Q 422 -1381 303 -1275 
Q 184 -1169 184 -1031 
Q 184 -900 270 -820 
Q 356 -741 506 -741 
Q 609 -741 788 -809 
Q 913 -856 944 -856 
Q 1038 -856 1148 -759 
Q 1259 -663 1372 -384 
L 1575 113 
L 547 2272 
Q 500 2369 397 2513 
Q 319 2622 269 2659 
Q 197 2709 38 2747 
L 38 2863 
z
" transform="scale(0.015625)"/>
      </defs>
      <use xlink:href="#TimesNewRomanPSMT-54"/>
      <use xlink:href="#TimesNewRomanPSMT-65" transform="translate(54.083984 0)"/>
      <use xlink:href="#TimesNewRomanPSMT-73" transform="translate(98.46875 0)"/>
      <use xlink:href="#TimesNewRomanPSMT-74" transform="translate(137.384766 0)"/>
      <use xlink:href="#TimesNewRomanPSMT-20" transform="translate(165.167969 0)"/>
      <use xlink:href="#TimesNewRomanPSMT-61" transform="translate(190.167969 0)"/>
      <use xlink:href="#TimesNewRomanPSMT-63" transform="translate(234.552734 0)"/>
      <use xlink:href="#TimesNewRomanPSMT-63" transform="translate(278.9375 0)"/>
      <use xlink:href="#TimesNewRomanPSMT-75" transform="translate(323.322266 0)"/>
      <use xlink:href="#TimesNewRomanPSMT-72" transform="translate(373.322266 0)"/>
      <use xlink:href="#TimesNewRomanPSMT-61" transform="translate(406.623047 0)"/>
      <use xlink:href="#TimesNewRomanPSMT-63" transform="translate(451.007812 0)"/>
      <use xlink:href="#TimesNewRomanPSMT-79" transform="translate(495.392578 0)"/>
     </g>
    </g>
   </g>
   <g id="PathCollection_1">
    <path d="M 414.179305 178.19221 
C 414.675454 178.19221 415.15135 177.995088 415.50218 177.644257 
C 415.853011 177.293426 416.050133 176.817531 416.050133 176.321381 
C 416.050133 175.825232 415.853011 175.349336 415.50218 174.998506 
C 415.15135 174.647675 414.675454 174.450553 414.179305 174.450553 
C 413.683155 174.450553 413.20726 174.647675 412.856429 174.998506 
C 412.505598 175.349336 412.308476 175.825232 412.308476 176.321381 
C 412.308476 176.817531 412.505598 177.293426 412.856429 177.644257 
C 413.20726 177.995088 413.683155 178.19221 414.179305 178.19221 
z
" clip-path="url(#pbffea6c477)" style="fill: #2b8cbe; fill-opacity: 0.45"/>
   </g>
   <g id="PathCollection_2">
    <path d="M 414.039572 124.067735 
C 414.535722 124.067735 415.011617 123.870613 415.362448 123.519782 
C 415.713278 123.168952 415.910401 122.693056 415.910401 122.196907 
C 415.910401 121.700757 415.713278 121.224862 415.362448 120.874031 
C 415.011617 120.5232 414.535722 120.326078 414.039572 120.326078 
C 413.543422 120.326078 413.067527 120.5232 412.716696 120.874031 
C 412.365866 121.224862 412.168743 121.700757 412.168743 122.196907 
C 412.168743 122.693056 412.365866 123.168952 412.716696 123.519782 
C 413.067527 123.870613 413.543422 124.067735 414.039572 124.067735 
z
" clip-path="url(#pbffea6c477)" style="fill: #2b8cbe; fill-opacity: 0.45"/>
   </g>
   <g id="PathCollection_3">
    <path d="M 414.22554 -85.664604 
C 414.721689 -85.664604 415.197585 -85.861726 415.548415 -86.212557 
C 415.899246 -86.563387 416.096368 -87.039283 416.096368 -87.535432 
C 416.096368 -88.031582 415.899246 -88.507477 415.548415 -88.858308 
C 415.197585 -89.209139 414.721689 -89.406261 414.22554 -89.406261 
C 413.72939 -89.406261 413.253495 -89.209139 412.902664 -88.858308 
C 412.551833 -88.507477 412.354711 -88.031582 412.354711 -87.535432 
C 412.354711 -87.039283 412.551833 -86.563387 412.902664 -86.212557 
C 413.253495 -85.861726 413.72939 -85.664604 414.22554 -85.664604 
z
" clip-path="url(#pbffea6c477)" style="fill: #2b8cbe; fill-opacity: 0.45"/>
   </g>
   <g id="PathCollection_4">
    <path d="M 275.433212 164.661091 
C 275.929362 164.661091 276.405257 164.463969 276.756088 164.113138 
C 277.106919 163.762308 277.304041 163.286412 277.304041 162.790263 
C 277.304041 162.294113 277.106919 161.818218 276.756088 161.467387 
C 276.405257 161.116556 275.929362 160.919434 275.433212 160.919434 
C 274.937063 160.919434 274.461167 161.116556 274.110337 161.467387 
C 273.759506 161.818218 273.562383 162.294113 273.562383 162.790263 
C 273.562383 163.286412 273.759506 163.762308 274.110337 164.113138 
C 274.461167 164.463969 274.937063 164.661091 275.433212 164.661091 
z
" clip-path="url(#pbffea6c477)" style="fill: #2b8cbe; fill-opacity: 0.45"/>
   </g>
   <g id="PathCollection_5">
    <path d="M 275.132652 103.771058 
C 275.628802 103.771058 276.104697 103.573935 276.455528 103.223104 
C 276.806358 102.872274 277.003481 102.396378 277.003481 101.900229 
C 277.003481 101.404079 276.806358 100.928184 276.455528 100.577353 
C 276.104697 100.226522 275.628802 100.0294 275.132652 100.0294 
C 274.636503 100.0294 274.160607 100.226522 273.809776 100.577353 
C 273.458946 100.928184 273.261823 101.404079 273.261823 101.900229 
C 273.261823 102.396378 273.458946 102.872274 273.809776 103.223104 
C 274.160607 103.573935 274.636503 103.771058 275.132652 103.771058 
z
" clip-path="url(#pbffea6c477)" style="fill: #2b8cbe; fill-opacity: 0.45"/>
   </g>
   <g id="PathCollection_6">
    <path d="M 275.200247 -92.430163 
C 275.696397 -92.430163 276.172292 -92.627285 276.523123 -92.978116 
C 276.873954 -93.328947 277.071076 -93.804842 277.071076 -94.300992 
C 277.071076 -94.797141 276.873954 -95.273036 276.523123 -95.623867 
C 276.172292 -95.974698 275.696397 -96.17182 275.200247 -96.17182 
C 274.704098 -96.17182 274.228202 -95.974698 273.877372 -95.623867 
C 273.526541 -95.273036 273.329419 -94.797141 273.329419 -94.300992 
C 273.329419 -93.804842 273.526541 -93.328947 273.877372 -92.978116 
C 274.228202 -92.627285 274.704098 -92.430163 275.200247 -92.430163 
z
" clip-path="url(#pbffea6c477)" style="fill: #2b8cbe; fill-opacity: 0.45"/>
   </g>
   <g id="PathCollection_7">
    <path d="M 197.426002 198.488888 
C 197.922152 198.488888 198.398047 198.291766 198.748878 197.940935 
C 199.099708 197.590104 199.296831 197.114209 199.296831 196.618059 
C 199.296831 196.12191 199.099708 195.646014 198.748878 195.295184 
C 198.398047 194.944353 197.922152 194.747231 197.426002 194.747231 
C 196.929852 194.747231 196.453957 194.944353 196.103126 195.295184 
C 195.752296 195.646014 195.555173 196.12191 195.555173 196.618059 
C 195.555173 197.114209 195.752296 197.590104 196.103126 197.940935 
C 196.453957 198.291766 196.929852 198.488888 197.426002 198.488888 
z
" clip-path="url(#pbffea6c477)" style="fill: #2b8cbe; fill-opacity: 0.45"/>
   </g>
   <g id="PathCollection_8">
    <path d="M 197.379881 83.47438 
C 197.876031 83.47438 198.351926 83.277257 198.702757 82.926427 
C 199.053587 82.575596 199.25071 82.0997 199.25071 81.603551 
C 199.25071 81.107401 199.053587 80.631506 198.702757 80.280675 
C 198.351926 79.929844 197.876031 79.732722 197.379881 79.732722 
C 196.883731 79.732722 196.407836 79.929844 196.057005 80.280675 
C 195.706175 80.631506 195.509052 81.107401 195.509052 81.603551 
C 195.509052 82.0997 195.706175 82.575596 196.057005 82.926427 
C 196.407836 83.277257 196.883731 83.47438 197.379881 83.47438 
z
" clip-path="url(#pbffea6c477)" style="fill: #2b8cbe; fill-opacity: 0.45"/>
   </g>
   <g id="PathCollection_9">
    <path d="M 197.410985 -85.664604 
C 197.907134 -85.664604 198.383029 -85.861726 198.73386 -86.212557 
C 199.084691 -86.563387 199.281813 -87.039283 199.281813 -87.535432 
C 199.281813 -88.031582 199.084691 -88.507477 198.73386 -88.858308 
C 198.383029 -89.209139 197.907134 -89.406261 197.410985 -89.406261 
C 196.914835 -89.406261 196.43894 -89.209139 196.088109 -88.858308 
C 195.737278 -88.507477 195.540156 -88.031582 195.540156 -87.535432 
C 195.540156 -87.039283 195.737278 -86.563387 196.088109 -86.212557 
C 196.43894 -85.861726 196.914835 -85.664604 197.410985 -85.664604 
z
" clip-path="url(#pbffea6c477)" style="fill: #2b8cbe; fill-opacity: 0.45"/>
   </g>
   <g id="PathCollection_10">
    <path d="M 161.488995 198.488888 
C 161.985145 198.488888 162.46104 198.291766 162.811871 197.940935 
C 163.162702 197.590104 163.359824 197.114209 163.359824 196.618059 
C 163.359824 196.12191 163.162702 195.646014 162.811871 195.295184 
C 162.46104 194.944353 161.985145 194.747231 161.488995 194.747231 
C 160.992846 194.747231 160.51695 194.944353 160.16612 195.295184 
C 159.815289 195.646014 159.618167 196.12191 159.618167 196.618059 
C 159.618167 197.114209 159.815289 197.590104 160.16612 197.940935 
C 160.51695 198.291766 160.992846 198.488888 161.488995 198.488888 
z
" clip-path="url(#pbffea6c477)" style="fill: #2b8cbe; fill-opacity: 0.45"/>
   </g>
   <g id="PathCollection_11">
    <path d="M 161.668883 83.47438 
C 162.165032 83.47438 162.640928 83.277257 162.991758 82.926427 
C 163.342589 82.575596 163.539711 82.0997 163.539711 81.603551 
C 163.539711 81.107401 163.342589 80.631506 162.991758 80.280675 
C 162.640928 79.929844 162.165032 79.732722 161.668883 79.732722 
C 161.172733 79.732722 160.696838 79.929844 160.346007 80.280675 
C 159.995176 80.631506 159.798054 81.107401 159.798054 81.603551 
C 159.798054 82.0997 159.995176 82.575596 160.346007 82.926427 
C 160.696838 83.277257 161.172733 83.47438 161.668883 83.47438 
z
" clip-path="url(#pbffea6c477)" style="fill: #2b8cbe; fill-opacity: 0.45"/>
   </g>
   <g id="PathCollection_12">
    <path d="M 161.65835 -51.836807 
C 162.154499 -51.836807 162.630395 -52.033929 162.981225 -52.38476 
C 163.332056 -52.735591 163.529178 -53.211486 163.529178 -53.707636 
C 163.529178 -54.203785 163.332056 -54.679681 162.981225 -55.030511 
C 162.630395 -55.381342 162.154499 -55.578464 161.65835 -55.578464 
C 161.1622 -55.578464 160.686305 -55.381342 160.335474 -55.030511 
C 159.984643 -54.679681 159.787521 -54.203785 159.787521 -53.707636 
C 159.787521 -53.211486 159.984643 -52.735591 160.335474 -52.38476 
C 160.686305 -52.033929 161.1622 -51.836807 161.65835 -51.836807 
z
" clip-path="url(#pbffea6c477)" style="fill: #2b8cbe; fill-opacity: 0.45"/>
   </g>
   <g id="PathCollection_13">
    <path d="M 128.815897 245.847803 
C 129.312046 245.847803 129.787942 245.650681 130.138772 245.29985 
C 130.489603 244.94902 130.686725 244.473124 130.686725 243.976975 
C 130.686725 243.480825 130.489603 243.00493 130.138772 242.654099 
C 129.787942 242.303268 129.312046 242.106146 128.815897 242.106146 
C 128.319747 242.106146 127.843852 242.303268 127.493021 242.654099 
C 127.14219 243.00493 126.945068 243.480825 126.945068 243.976975 
C 126.945068 244.473124 127.14219 244.94902 127.493021 245.29985 
C 127.843852 245.650681 128.319747 245.847803 128.815897 245.847803 
z
" clip-path="url(#pbffea6c477)" style="fill: #2b8cbe; fill-opacity: 0.45"/>
   </g>
   <g id="PathCollection_14">
    <path d="M 128.925959 137.598854 
C 129.422108 137.598854 129.898003 137.401732 130.248834 137.050901 
C 130.599665 136.70007 130.796787 136.224175 130.796787 135.728025 
C 130.796787 135.231876 130.599665 134.75598 130.248834 134.40515 
C 129.898003 134.054319 129.422108 133.857197 128.925959 133.857197 
C 128.429809 133.857197 127.953914 134.054319 127.603083 134.40515 
C 127.252252 134.75598 127.05513 135.231876 127.05513 135.728025 
C 127.05513 136.224175 127.252252 136.70007 127.603083 137.050901 
C 127.953914 137.401732 128.429809 137.598854 128.925959 137.598854 
z
" clip-path="url(#pbffea6c477)" style="fill: #2b8cbe; fill-opacity: 0.45"/>
   </g>
   <g id="PathCollection_15">
    <path d="M 128.857563 -31.540129 
C 129.353712 -31.540129 129.829608 -31.737251 130.180439 -32.088082 
C 130.531269 -32.438913 130.728392 -32.914808 130.728392 -33.410958 
C 130.728392 -33.907107 130.531269 -34.383003 130.180439 -34.733833 
C 129.829608 -35.084664 129.353712 -35.281786 128.857563 -35.281786 
C 128.361413 -35.281786 127.885518 -35.084664 127.534687 -34.733833 
C 127.183857 -34.383003 126.986734 -33.907107 126.986734 -33.410958 
C 126.986734 -32.914808 127.183857 -32.438913 127.534687 -32.088082 
C 127.885518 -31.737251 128.361413 -31.540129 128.857563 -31.540129 
z
" clip-path="url(#pbffea6c477)" style="fill: #2b8cbe; fill-opacity: 0.45"/>
   </g>
   <g id="PathCollection_16">
    <path d="M 109.673563 198.488888 
C 110.169712 198.488888 110.645608 198.291766 110.996438 197.940935 
C 111.347269 197.590104 111.544391 197.114209 111.544391 196.618059 
C 111.544391 196.12191 111.347269 195.646014 110.996438 195.295184 
C 110.645608 194.944353 110.169712 194.747231 109.673563 194.747231 
C 109.177413 194.747231 108.701518 194.944353 108.350687 195.295184 
C 107.999856 195.646014 107.802734 196.12191 107.802734 196.618059 
C 107.802734 197.114209 107.999856 197.590104 108.350687 197.940935 
C 108.701518 198.291766 109.177413 198.488888 109.673563 198.488888 
z
" clip-path="url(#pbffea6c477)" style="fill: #2b8cbe; fill-opacity: 0.45"/>
   </g>
   <g id="PathCollection_17">
    <path d="M 109.801142 110.536617 
C 110.297291 110.536617 110.773187 110.339495 111.124017 109.988664 
C 111.474848 109.637833 111.671971 109.161938 111.671971 108.665788 
C 111.671971 108.169639 111.474848 107.693743 111.124017 107.342912 
C 110.773187 106.992082 110.297291 106.794959 109.801142 106.794959 
C 109.304992 106.794959 108.829097 106.992082 108.478266 107.342912 
C 108.127435 107.693743 107.930313 108.169639 107.930313 108.665788 
C 107.930313 109.161938 108.127435 109.637833 108.478266 109.988664 
C 108.829097 110.339495 109.304992 110.536617 109.801142 110.536617 
z
" clip-path="url(#pbffea6c477)" style="fill: #2b8cbe; fill-opacity: 0.45"/>
   </g>
   <g id="PathCollection_18">
    <path d="M 109.663203 36.115464 
C 110.159352 36.115464 110.635248 35.918342 110.986078 35.567511 
C 111.336909 35.216681 111.534031 34.740785 111.534031 34.244636 
C 111.534031 33.748486 111.336909 33.272591 110.986078 32.92176 
C 110.635248 32.570929 110.159352 32.373807 109.663203 32.373807 
C 109.167053 32.373807 108.691158 32.570929 108.340327 32.92176 
C 107.989496 33.272591 107.792374 33.748486 107.792374 34.244636 
C 107.792374 34.740785 107.989496 35.216681 108.340327 35.567511 
C 108.691158 35.918342 109.167053 36.115464 109.663203 36.115464 
z
" clip-path="url(#pbffea6c477)" style="fill: #2b8cbe; fill-opacity: 0.45"/>
   </g>
   <g id="PathCollection_19">
    <path d="M 85.592843 164.661091 
C 86.088993 164.661091 86.564888 164.463969 86.915719 164.113138 
C 87.26655 163.762308 87.463672 163.286412 87.463672 162.790263 
C 87.463672 162.294113 87.26655 161.818218 86.915719 161.467387 
C 86.564888 161.116556 86.088993 160.919434 85.592843 160.919434 
C 85.096694 160.919434 84.620798 161.116556 84.269967 161.467387 
C 83.919137 161.818218 83.722014 162.294113 83.722014 162.790263 
C 83.722014 163.286412 83.919137 163.762308 84.269967 164.113138 
C 84.620798 164.463969 85.096694 164.661091 85.592843 164.661091 
z
" clip-path="url(#pbffea6c477)" style="fill: #2b8cbe; fill-opacity: 0.45"/>
   </g>
   <g id="PathCollection_20">
    <path d="M 85.496523 272.910041 
C 85.992673 272.910041 86.468568 272.712918 86.819399 272.362088 
C 87.170229 272.011257 87.367352 271.535361 87.367352 271.039212 
C 87.367352 270.543062 87.170229 270.067167 86.819399 269.716336 
C 86.468568 269.365505 85.992673 269.168383 85.496523 269.168383 
C 85.000373 269.168383 84.524478 269.365505 84.173647 269.716336 
C 83.822817 270.067167 83.625694 270.543062 83.625694 271.039212 
C 83.625694 271.535361 83.822817 272.011257 84.173647 272.362088 
C 84.524478 272.712918 85.000373 272.910041 85.496523 272.910041 
z
" clip-path="url(#pbffea6c477)" style="fill: #2b8cbe; fill-opacity: 0.45"/>
   </g>
   <g id="PathCollection_21">
    <path d="M 85.482508 36.115464 
C 85.978658 36.115464 86.454553 35.918342 86.805384 35.567511 
C 87.156215 35.216681 87.353337 34.740785 87.353337 34.244636 
C 87.353337 33.748486 87.156215 33.272591 86.805384 32.92176 
C 86.454553 32.570929 85.978658 32.373807 85.482508 32.373807 
C 84.986359 32.373807 84.510463 32.570929 84.159633 32.92176 
C 83.808802 33.272591 83.61168 33.748486 83.61168 34.244636 
C 83.61168 34.740785 83.808802 35.216681 84.159633 35.567511 
C 84.510463 35.918342 84.986359 36.115464 85.482508 36.115464 
z
" clip-path="url(#pbffea6c477)" style="fill: #2b8cbe; fill-opacity: 0.45"/>
   </g>
   <g id="PathCollection_22">
    <path d="M 69.280085 124.067735 
C 69.776235 124.067735 70.25213 123.870613 70.602961 123.519782 
C 70.953792 123.168952 71.150914 122.693056 71.150914 122.196907 
C 71.150914 121.700757 70.953792 121.224862 70.602961 120.874031 
C 70.25213 120.5232 69.776235 120.326078 69.280085 120.326078 
C 68.783936 120.326078 68.30804 120.5232 67.95721 120.874031 
C 67.606379 121.224862 67.409257 121.700757 67.409257 122.196907 
C 67.409257 122.693056 67.606379 123.168952 67.95721 123.519782 
C 68.30804 123.870613 68.783936 124.067735 69.280085 124.067735 
z
" clip-path="url(#pbffea6c477)" style="fill: #2b8cbe; fill-opacity: 0.45"/>
   </g>
   <g id="PathCollection_23">
    <path d="M 69.477629 293.206719 
C 69.973779 293.206719 70.449674 293.009596 70.800505 292.658765 
C 71.151336 292.307935 71.348458 291.832039 71.348458 291.33589 
C 71.348458 290.83974 71.151336 290.363845 70.800505 290.013014 
C 70.449674 289.662183 69.973779 289.465061 69.477629 289.465061 
C 68.98148 289.465061 68.505585 289.662183 68.154754 290.013014 
C 67.803923 290.363845 67.606801 290.83974 67.606801 291.33589 
C 67.606801 291.832039 67.803923 292.307935 68.154754 292.658765 
C 68.505585 293.009596 68.98148 293.206719 69.477629 293.206719 
z
" clip-path="url(#pbffea6c477)" style="fill: #2b8cbe; fill-opacity: 0.45"/>
   </g>
   <g id="PathCollection_24">
    <path d="M 69.334791 157.895532 
C 69.83094 157.895532 70.306836 157.69841 70.657666 157.347579 
C 71.008497 156.996748 71.20562 156.520853 71.20562 156.024703 
C 71.20562 155.528554 71.008497 155.052658 70.657666 154.701828 
C 70.306836 154.350997 69.83094 154.153875 69.334791 154.153875 
C 68.838641 154.153875 68.362746 154.350997 68.011915 154.701828 
C 67.661084 155.052658 67.463962 155.528554 67.463962 156.024703 
C 67.463962 156.520853 67.661084 156.996748 68.011915 157.347579 
C 68.362746 157.69841 68.838641 157.895532 69.334791 157.895532 
z
" clip-path="url(#pbffea6c477)" style="fill: #2b8cbe; fill-opacity: 0.45"/>
   </g>
   <g id="patch_3">
    <path d="M 52.032813 223.1165 
L 52.032813 23.5325 
" style="fill: none; stroke: #000000; stroke-width: 0.8; stroke-linejoin: miter; stroke-linecap: square"/>
   </g>
   <g id="patch_4">
    <path d="M 431.472812 223.1165 
L 431.472812 23.5325 
" style="fill: none; stroke: #000000; stroke-width: 0.8; stroke-linejoin: miter; stroke-linecap: square"/>
   </g>
   <g id="patch_5">
    <path d="M 52.032813 223.1165 
L 431.472812 223.1165 
" style="fill: none; stroke: #000000; stroke-width: 0.8; stroke-linejoin: miter; stroke-linecap: square"/>
   </g>
   <g id="patch_6">
    <path d="M 52.032813 23.5325 
L 431.472812 23.5325 
" style="fill: none; stroke: #000000; stroke-width: 0.8; stroke-linejoin: miter; stroke-linecap: square"/>
   </g>
   <g id="LineCollection_1">
    <path d="M 69.350839 261.318063 
L 69.350839 100.352563 
" clip-path="url(#pbffea6c477)" style="fill: none; stroke: #000000; stroke-width: 0.9"/>
    <path d="M 85.501707 261.318063 
L 85.501707 37.482528 
" clip-path="url(#pbffea6c477)" style="fill: none; stroke: #000000; stroke-width: 0.9"/>
    <path d="M 109.762866 194.456785 
L 109.762866 31.895537 
" clip-path="url(#pbffea6c477)" style="fill: none; stroke: #000000; stroke-width: 0.9"/>
    <path d="M 128.809041 255.234719 
L 128.809041 -1 
" clip-path="url(#pbffea6c477)" style="fill: none; stroke: #000000; stroke-width: 0.9"/>
    <path d="M 161.577649 200.137904 
L 161.577649 -1 
" clip-path="url(#pbffea6c477)" style="fill: none; stroke: #000000; stroke-width: 0.9"/>
    <path d="M 197.412729 206.495342 
L 197.412729 -1 
" clip-path="url(#pbffea6c477)" style="fill: none; stroke: #000000; stroke-width: 0.9"/>
    <path d="M 275.335638 191.145813 
L 275.335638 -1 
" clip-path="url(#pbffea6c477)" style="fill: none; stroke: #000000; stroke-width: 0.9"/>
    <path d="M 414.147673 209.693762 
L 414.147673 -1 
" clip-path="url(#pbffea6c477)" style="fill: none; stroke: #000000; stroke-width: 0.9"/>
   </g>
   <g id="line2d_18">
    <defs>
     <path id="maa6543981f" d="M 3 0 
L -3 -0 
" style="stroke: #000000"/>
    </defs>
    <g clip-path="url(#pbffea6c477)">
     <use xlink:href="#maa6543981f" x="69.350839" y="279.352437" style="stroke: #000000"/>
     <use xlink:href="#maa6543981f" x="85.501707" y="274.566879" style="stroke: #000000"/>
     <use xlink:href="#maa6543981f" x="109.762866" y="194.456785" style="stroke: #000000"/>
     <use xlink:href="#maa6543981f" x="128.809041" y="255.234719" style="stroke: #000000"/>
     <use xlink:href="#maa6543981f" x="161.577649" y="200.137904" style="stroke: #000000"/>
     <use xlink:href="#maa6543981f" x="197.412729" y="206.495342" style="stroke: #000000"/>
     <use xlink:href="#maa6543981f" x="275.335638" y="191.145813" style="stroke: #000000"/>
     <use xlink:href="#maa6543981f" x="414.147673" y="209.693762" style="stroke: #000000"/>
    </g>
   </g>
   <g id="line2d_19">
    <g clip-path="url(#pbffea6c477)">
     <use xlink:href="#maa6543981f" x="69.350839" y="100.352563" style="stroke: #000000"/>
     <use xlink:href="#maa6543981f" x="85.501707" y="37.482528" style="stroke: #000000"/>
     <use xlink:href="#maa6543981f" x="109.762866" y="31.895537" style="stroke: #000000"/>
     <use xlink:href="#maa6543981f" x="120.897775" y="-1" style="stroke: #000000"/>
    </g>
   </g>
   <g id="text_11">
    <!-- σ=4.0 -->
    <g transform="translate(75.350839 185.8525) scale(0.08 -0.08)">
     <defs>
      <path id="TimesNewRomanPSMT-3c3" d="M 3322 2863 
L 3322 2406 
L 2103 2406 
Q 2503 2178 2756 1829 
Q 3009 1481 3009 1091 
Q 3009 581 2607 246 
Q 2206 -88 1697 -88 
Q 1094 -88 656 385 
Q 219 859 219 1488 
Q 219 1931 448 2272 
Q 678 2613 983 2738 
Q 1288 2863 1806 2863 
L 3322 2863 
z
M 1894 2406 
L 1784 2406 
Q 1316 2406 1036 2173 
Q 756 1941 756 1444 
Q 756 916 1050 511 
Q 1344 106 1738 106 
Q 2053 106 2259 411 
Q 2466 716 2466 1147 
Q 2466 1831 1894 2406 
z
" transform="scale(0.015625)"/>
      <path id="TimesNewRomanPSMT-3d" d="M 116 2759 
L 3488 2759 
L 3488 2503 
L 116 2503 
L 116 2759 
z
M 116 1741 
L 3488 1741 
L 3488 1484 
L 116 1484 
L 116 1741 
z
" transform="scale(0.015625)"/>
     </defs>
     <use xlink:href="#TimesNewRomanPSMT-3c3"/>
     <use xlink:href="#TimesNewRomanPSMT-3d" transform="translate(53.90625 0)"/>
     <use xlink:href="#TimesNewRomanPSMT-34" transform="translate(110.302734 0)"/>
     <use xlink:href="#TimesNewRomanPSMT-2e" transform="translate(160.302734 0)"/>
     <use xlink:href="#TimesNewRomanPSMT-30" transform="translate(185.302734 0)"/>
    </g>
   </g>
   <g id="text_12">
    <!-- σ=3.0 -->
    <g transform="translate(91.501707 152.024703) scale(0.08 -0.08)">
     <use xlink:href="#TimesNewRomanPSMT-3c3"/>
     <use xlink:href="#TimesNewRomanPSMT-3d" transform="translate(53.90625 0)"/>
     <use xlink:href="#TimesNewRomanPSMT-33" transform="translate(110.302734 0)"/>
     <use xlink:href="#TimesNewRomanPSMT-2e" transform="translate(160.302734 0)"/>
     <use xlink:href="#TimesNewRomanPSMT-30" transform="translate(185.302734 0)"/>
    </g>
   </g>
   <g id="text_13">
    <!-- σ=2.0 -->
    <g transform="translate(115.762866 109.176161) scale(0.08 -0.08)">
     <use xlink:href="#TimesNewRomanPSMT-3c3"/>
     <use xlink:href="#TimesNewRomanPSMT-3d" transform="translate(53.90625 0)"/>
     <use xlink:href="#TimesNewRomanPSMT-32" transform="translate(110.302734 0)"/>
     <use xlink:href="#TimesNewRomanPSMT-2e" transform="translate(160.302734 0)"/>
     <use xlink:href="#TimesNewRomanPSMT-30" transform="translate(185.302734 0)"/>
    </g>
   </g>
   <g id="text_14">
    <!-- σ=1.5 -->
    <g transform="translate(134.809041 111.431347) scale(0.08 -0.08)">
     <use xlink:href="#TimesNewRomanPSMT-3c3"/>
     <use xlink:href="#TimesNewRomanPSMT-3d" transform="translate(53.90625 0)"/>
     <use xlink:href="#TimesNewRomanPSMT-31" transform="translate(110.302734 0)"/>
     <use xlink:href="#TimesNewRomanPSMT-2e" transform="translate(160.302734 0)"/>
     <use xlink:href="#TimesNewRomanPSMT-35" transform="translate(185.302734 0)"/>
    </g>
   </g>
   <g id="text_15">
    <!-- σ=1.0 -->
    <g transform="translate(167.577649 70.837992) scale(0.08 -0.08)">
     <use xlink:href="#TimesNewRomanPSMT-3c3"/>
     <use xlink:href="#TimesNewRomanPSMT-3d" transform="translate(53.90625 0)"/>
     <use xlink:href="#TimesNewRomanPSMT-31" transform="translate(110.302734 0)"/>
     <use xlink:href="#TimesNewRomanPSMT-2e" transform="translate(160.302734 0)"/>
     <use xlink:href="#TimesNewRomanPSMT-30" transform="translate(185.302734 0)"/>
    </g>
   </g>
   <g id="text_16">
    <!-- σ=0.75 -->
    <g transform="translate(203.412729 59.562059) scale(0.08 -0.08)">
     <defs>
      <path id="TimesNewRomanPSMT-37" d="M 644 4238 
L 2916 4238 
L 2916 4119 
L 1503 -88 
L 1153 -88 
L 2419 3728 
L 1253 3728 
Q 900 3728 750 3644 
Q 488 3500 328 3200 
L 238 3234 
L 644 4238 
z
" transform="scale(0.015625)"/>
     </defs>
     <use xlink:href="#TimesNewRomanPSMT-3c3"/>
     <use xlink:href="#TimesNewRomanPSMT-3d" transform="translate(53.90625 0)"/>
     <use xlink:href="#TimesNewRomanPSMT-30" transform="translate(110.302734 0)"/>
     <use xlink:href="#TimesNewRomanPSMT-2e" transform="translate(160.302734 0)"/>
     <use xlink:href="#TimesNewRomanPSMT-37" transform="translate(185.302734 0)"/>
     <use xlink:href="#TimesNewRomanPSMT-35" transform="translate(235.302734 0)"/>
    </g>
   </g>
   <g id="text_17">
    <!-- σ=0.5 -->
    <g transform="translate(281.335638 52.7965) scale(0.08 -0.08)">
     <use xlink:href="#TimesNewRomanPSMT-3c3"/>
     <use xlink:href="#TimesNewRomanPSMT-3d" transform="translate(53.90625 0)"/>
     <use xlink:href="#TimesNewRomanPSMT-30" transform="translate(110.302734 0)"/>
     <use xlink:href="#TimesNewRomanPSMT-2e" transform="translate(160.302734 0)"/>
     <use xlink:href="#TimesNewRomanPSMT-35" transform="translate(185.302734 0)"/>
    </g>
   </g>
   <g id="text_18">
    <!-- σ=0.25 -->
    <g transform="translate(420.147673 66.327619) scale(0.08 -0.08)">
     <use xlink:href="#TimesNewRomanPSMT-3c3"/>
     <use xlink:href="#TimesNewRomanPSMT-3d" transform="translate(53.90625 0)"/>
     <use xlink:href="#TimesNewRomanPSMT-30" transform="translate(110.302734 0)"/>
     <use xlink:href="#TimesNewRomanPSMT-2e" transform="translate(160.302734 0)"/>
     <use xlink:href="#TimesNewRomanPSMT-32" transform="translate(185.302734 0)"/>
     <use xlink:href="#TimesNewRomanPSMT-35" transform="translate(235.302734 0)"/>
    </g>
   </g>
   <g id="text_19">
    <!-- DP-SGD: Privacy–Utility Curve -->
    <g transform="translate(163.756562 15.5325) scale(0.12 -0.12)">
     <defs>
      <path id="TimesNewRomanPSMT-44" d="M 109 0 
L 109 116 
L 269 116 
Q 538 116 650 288 
Q 719 391 719 750 
L 719 3488 
Q 719 3884 631 3984 
Q 509 4122 269 4122 
L 109 4122 
L 109 4238 
L 1834 4238 
Q 2784 4238 3279 4022 
Q 3775 3806 4076 3303 
Q 4378 2800 4378 2141 
Q 4378 1256 3841 663 
Q 3238 0 2003 0 
L 109 0 
z
M 1319 306 
Q 1716 219 1984 219 
Q 2709 219 3187 728 
Q 3666 1238 3666 2109 
Q 3666 2988 3187 3494 
Q 2709 4000 1959 4000 
Q 1678 4000 1319 3909 
L 1319 306 
z
" transform="scale(0.015625)"/>
      <path id="TimesNewRomanPSMT-50" d="M 1313 1984 
L 1313 750 
Q 1313 350 1400 253 
Q 1519 116 1759 116 
L 1922 116 
L 1922 0 
L 106 0 
L 106 116 
L 266 116 
Q 534 116 650 291 
Q 713 388 713 750 
L 713 3488 
Q 713 3888 628 3984 
Q 506 4122 266 4122 
L 106 4122 
L 106 4238 
L 1659 4238 
Q 2228 4238 2556 4120 
Q 2884 4003 3109 3725 
Q 3334 3447 3334 3066 
Q 3334 2547 2992 2222 
Q 2650 1897 2025 1897 
Q 1872 1897 1694 1919 
Q 1516 1941 1313 1984 
z
M 1313 2163 
Q 1478 2131 1606 2115 
Q 1734 2100 1825 2100 
Q 2150 2100 2386 2351 
Q 2622 2603 2622 3003 
Q 2622 3278 2509 3514 
Q 2397 3750 2190 3867 
Q 1984 3984 1722 3984 
Q 1563 3984 1313 3925 
L 1313 2163 
z
" transform="scale(0.015625)"/>
      <path id="TimesNewRomanPSMT-2d" d="M 259 1672 
L 1875 1672 
L 1875 1200 
L 259 1200 
L 259 1672 
z
" transform="scale(0.015625)"/>
      <path id="TimesNewRomanPSMT-53" d="M 2934 4334 
L 2934 2869 
L 2819 2869 
Q 2763 3291 2617 3541 
Q 2472 3791 2203 3937 
Q 1934 4084 1647 4084 
Q 1322 4084 1109 3886 
Q 897 3688 897 3434 
Q 897 3241 1031 3081 
Q 1225 2847 1953 2456 
Q 2547 2138 2764 1967 
Q 2981 1797 3098 1565 
Q 3216 1334 3216 1081 
Q 3216 600 2842 251 
Q 2469 -97 1881 -97 
Q 1697 -97 1534 -69 
Q 1438 -53 1133 45 
Q 828 144 747 144 
Q 669 144 623 97 
Q 578 50 556 -97 
L 441 -97 
L 441 1356 
L 556 1356 
Q 638 900 775 673 
Q 913 447 1195 297 
Q 1478 147 1816 147 
Q 2206 147 2432 353 
Q 2659 559 2659 841 
Q 2659 997 2573 1156 
Q 2488 1316 2306 1453 
Q 2184 1547 1640 1851 
Q 1097 2156 867 2337 
Q 638 2519 519 2737 
Q 400 2956 400 3219 
Q 400 3675 750 4004 
Q 1100 4334 1641 4334 
Q 1978 4334 2356 4169 
Q 2531 4091 2603 4091 
Q 2684 4091 2736 4139 
Q 2788 4188 2819 4334 
L 2934 4334 
z
" transform="scale(0.015625)"/>
      <path id="TimesNewRomanPSMT-47" d="M 3928 4334 
L 4038 2997 
L 3928 2997 
Q 3763 3497 3500 3750 
Q 3122 4116 2528 4116 
Q 1719 4116 1297 3475 
Q 944 2934 944 2188 
Q 944 1581 1178 1081 
Q 1413 581 1792 348 
Q 2172 116 2572 116 
Q 2806 116 3025 175 
Q 3244 234 3447 350 
L 3447 1575 
Q 3447 1894 3398 1992 
Q 3350 2091 3248 2142 
Q 3147 2194 2891 2194 
L 2891 2313 
L 4531 2313 
L 4531 2194 
L 4453 2194 
Q 4209 2194 4119 2031 
Q 4056 1916 4056 1575 
L 4056 278 
Q 3697 84 3347 -6 
Q 2997 -97 2569 -97 
Q 1341 -97 703 691 
Q 225 1281 225 2053 
Q 225 2613 494 3125 
Q 813 3734 1369 4063 
Q 1834 4334 2469 4334 
Q 2700 4334 2889 4296 
Q 3078 4259 3425 4131 
Q 3600 4066 3659 4066 
Q 3719 4066 3761 4120 
Q 3803 4175 3813 4334 
L 3928 4334 
z
" transform="scale(0.015625)"/>
      <path id="TimesNewRomanPSMT-3a" d="M 903 2950 
Q 1047 2950 1148 2848 
Q 1250 2747 1250 2603 
Q 1250 2459 1148 2357 
Q 1047 2256 903 2256 
Q 759 2256 657 2357 
Q 556 2459 556 2603 
Q 556 2747 657 2848 
Q 759 2950 903 2950 
z
M 897 609 
Q 1044 609 1145 506 
Q 1247 403 1247 259 
Q 1247 116 1144 14 
Q 1041 -88 897 -88 
Q 753 -88 651 14 
Q 550 116 550 259 
Q 550 403 651 506 
Q 753 609 897 609 
z
" transform="scale(0.015625)"/>
      <path id="TimesNewRomanPSMT-76" d="M 53 2863 
L 1400 2863 
L 1400 2747 
L 1313 2747 
Q 1191 2747 1127 2687 
Q 1063 2628 1063 2528 
Q 1063 2419 1128 2269 
L 1794 688 
L 2463 2328 
Q 2534 2503 2534 2594 
Q 2534 2638 2509 2666 
Q 2475 2713 2422 2730 
Q 2369 2747 2206 2747 
L 2206 2863 
L 3141 2863 
L 3141 2747 
Q 2978 2734 2916 2681 
Q 2806 2588 2719 2369 
L 1703 -88 
L 1575 -88 
L 553 2328 
Q 484 2497 421 2570 
Q 359 2644 263 2694 
Q 209 2722 53 2747 
L 53 2863 
z
" transform="scale(0.015625)"/>
      <path id="TimesNewRomanPSMT-2013" d="M 3253 1416 
L -56 1416 
L -56 1644 
L 3253 1644 
L 3253 1416 
z
" transform="scale(0.015625)"/>
      <path id="TimesNewRomanPSMT-55" d="M 3053 4122 
L 3053 4238 
L 4553 4238 
L 4553 4122 
L 4394 4122 
Q 4144 4122 4009 3913 
Q 3944 3816 3944 3463 
L 3944 1744 
Q 3944 1106 3817 754 
Q 3691 403 3320 151 
Q 2950 -100 2313 -100 
Q 1619 -100 1259 140 
Q 900 381 750 788 
Q 650 1066 650 1831 
L 650 3488 
Q 650 3878 542 4000 
Q 434 4122 194 4122 
L 34 4122 
L 34 4238 
L 1866 4238 
L 1866 4122 
L 1703 4122 
Q 1441 4122 1328 3956 
Q 1250 3844 1250 3488 
L 1250 1641 
Q 1250 1394 1295 1075 
Q 1341 756 1459 578 
Q 1578 400 1801 284 
Q 2025 169 2350 169 
Q 2766 169 3094 350 
Q 3422 531 3542 814 
Q 3663 1097 3663 1772 
L 3663 3488 
Q 3663 3884 3575 3984 
Q 3453 4122 3213 4122 
L 3053 4122 
z
" transform="scale(0.015625)"/>
      <path id="TimesNewRomanPSMT-43" d="M 3853 4334 
L 3950 2894 
L 3853 2894 
Q 3659 3541 3300 3825 
Q 2941 4109 2438 4109 
Q 2016 4109 1675 3895 
Q 1334 3681 1139 3212 
Q 944 2744 944 2047 
Q 944 1472 1128 1050 
Q 1313 628 1683 403 
Q 2053 178 2528 178 
Q 2941 178 3256 354 
Q 3572 531 3950 1056 
L 4047 994 
Q 3728 428 3303 165 
Q 2878 -97 2294 -97 
Q 1241 -97 663 684 
Q 231 1266 231 2053 
Q 231 2688 515 3219 
Q 800 3750 1298 4042 
Q 1797 4334 2388 4334 
Q 2847 4334 3294 4109 
Q 3425 4041 3481 4041 
Q 3566 4041 3628 4100 
Q 3709 4184 3744 4334 
L 3853 4334 
z
" transform="scale(0.015625)"/>
     </defs>
     <use xlink:href="#TimesNewRomanPSMT-44"/>
     <use xlink:href="#TimesNewRomanPSMT-50" transform="translate(72.216797 0)"/>
     <use xlink:href="#TimesNewRomanPSMT-2d" transform="translate(127.832031 0)"/>
     <use xlink:href="#TimesNewRomanPSMT-53" transform="translate(161.132812 0)"/>
     <use xlink:href="#TimesNewRomanPSMT-47" transform="translate(216.748047 0)"/>
     <use xlink:href="#TimesNewRomanPSMT-44" transform="translate(288.964844 0)"/>
     <use xlink:href="#TimesNewRomanPSMT-3a" transform="translate(361.181641 0)"/>
     <use xlink:href="#TimesNewRomanPSMT-20" transform="translate(388.964844 0)"/>
     <use xlink:href="#TimesNewRomanPSMT-50" transform="translate(413.964844 0)"/>
     <use xlink:href="#TimesNewRomanPSMT-72" transform="translate(469.580078 0)"/>
     <use xlink:href="#TimesNewRomanPSMT-69" transform="translate(502.880859 0)"/>
     <use xlink:href="#TimesNewRomanPSMT-76" transform="translate(530.664062 0)"/>
     <use xlink:href="#TimesNewRomanPSMT-61" transform="translate(580.664062 0)"/>
     <use xlink:href="#TimesNewRomanPSMT-63" transform="translate(625.048828 0)"/>
     <use xlink:href="#TimesNewRomanPSMT-79" transform="translate(669.433594 0)"/>
     <use xlink:href="#TimesNewRomanPSMT-2013" transform="translate(719.433594 0)"/>
     <use xlink:href="#TimesNewRomanPSMT-55" transform="translate(769.433594 0)"/>
     <use xlink:href="#TimesNewRomanPSMT-74" transform="translate(841.650391 0)"/>
     <use xlink:href="#TimesNewRomanPSMT-69" transform="translate(869.433594 0)"/>
     <use xlink:href="#TimesNewRomanPSMT-6c" transform="translate(897.216797 0)"/>
     <use xlink:href="#TimesNewRomanPSMT-69" transform="translate(925 0)"/>
     <use xlink:href="#TimesNewRomanPSMT-74" transform="translate(952.783203 0)"/>
     <use xlink:href="#TimesNewRomanPSMT-79" transform="translate(980.566406 0)"/>
     <use xlink:href="#TimesNewRomanPSMT-20" transform="translate(1030.566406 0)"/>
     <use xlink:href="#TimesNewRomanPSMT-43" transform="translate(1055.566406 0)"/>
     <use xlink:href="#TimesNewRomanPSMT-75" transform="translate(1122.265625 0)"/>
     <use xlink:href="#TimesNewRomanPSMT-72" transform="translate(1172.265625 0)"/>
     <use xlink:href="#TimesNewRomanPSMT-76" transform="translate(1205.566406 0)"/>
     <use xlink:href="#TimesNewRomanPSMT-65" transform="translate(1255.566406 0)"/>
    </g>
   </g>
   <g id="line2d_20">
    <path d="M 69.350839 189.8525 
L 85.501707 156.024703 
L 109.762866 113.176161 
L 128.809041 115.431347 
L 161.577649 74.837992 
L 197.412729 63.562059 
L 275.335638 56.7965 
L 414.147673 70.327619 
" clip-path="url(#pbffea6c477)" style="fill: none; stroke: #000000; stroke-width: 1.2; stroke-linecap: square"/>
    <defs>
     <path id="m8a2160c00c" d="M 0 3 
C 0.795609 3 1.55874 2.683901 2.12132 2.12132 
C 2.683901 1.55874 3 0.795609 3 0 
C 3 -0.795609 2.683901 -1.55874 2.12132 -2.12132 
C 1.55874 -2.683901 0.795609 -3 0 -3 
C -0.795609 -3 -1.55874 -2.683901 -2.12132 -2.12132 
C -2.683901 -1.55874 -3 -0.795609 -3 0 
C -3 0.795609 -2.683901 1.55874 -2.12132 2.12132 
C -1.55874 2.683901 -0.795609 3 0 3 
z
" style="stroke: #000000"/>
    </defs>
    <g clip-path="url(#pbffea6c477)">
     <use xlink:href="#m8a2160c00c" x="69.350839" y="189.8525" style="fill: #045a8d; stroke: #000000"/>
     <use xlink:href="#m8a2160c00c" x="85.501707" y="156.024703" style="fill: #045a8d; stroke: #000000"/>
     <use xlink:href="#m8a2160c00c" x="109.762866" y="113.176161" style="fill: #045a8d; stroke: #000000"/>
     <use xlink:href="#m8a2160c00c" x="128.809041" y="115.431347" style="fill: #045a8d; stroke: #000000"/>
     <use xlink:href="#m8a2160c00c" x="161.577649" y="74.837992" style="fill: #045a8d; stroke: #000000"/>
     <use xlink:href="#m8a2160c00c" x="197.412729" y="63.562059" style="fill: #045a8d; stroke: #000000"/>
     <use xlink:href="#m8a2160c00c" x="275.335638" y="56.7965" style="fill: #045a8d; stroke: #000000"/>
     <use xlink:href="#m8a2160c00c" x="414.147673" y="70.327619" style="fill: #045a8d; stroke: #000000"/>
    </g>
   </g>
   <g id="legend_1">
    <g id="patch_7">
     <path d="M 317.978594 56.182813 
L 426.972812 56.182813 
L 426.972812 28.0325 
L 317.978594 28.0325 
z
" style="fill: #ffffff; opacity: 0.8; stroke: #808080; stroke-width: 0.6; stroke-linejoin: miter"/>
    </g>
    <g id="line2d_21">
     <path d="M 321.578594 34.7825 
L 330.578594 34.7825 
L 339.578594 34.7825 
" style="fill: none; stroke-dasharray: 3.7,1.6; stroke-dashoffset: 0; stroke: #4c4c4c"/>
    </g>
    <g id="text_20">
     <!-- Baseline (0.9244) -->
     <g transform="translate(346.778594 37.9325) scale(0.09 -0.09)">
      <defs>
       <path id="TimesNewRomanPSMT-42" d="M 2956 2163 
Q 3397 2069 3616 1863 
Q 3919 1575 3919 1159 
Q 3919 844 3719 555 
Q 3519 266 3170 133 
Q 2822 0 2106 0 
L 106 0 
L 106 116 
L 266 116 
Q 531 116 647 284 
Q 719 394 719 750 
L 719 3488 
Q 719 3881 628 3984 
Q 506 4122 266 4122 
L 106 4122 
L 106 4238 
L 1938 4238 
Q 2450 4238 2759 4163 
Q 3228 4050 3475 3764 
Q 3722 3478 3722 3106 
Q 3722 2788 3528 2536 
Q 3334 2284 2956 2163 
z
M 1319 2331 
Q 1434 2309 1582 2298 
Q 1731 2288 1909 2288 
Q 2366 2288 2595 2386 
Q 2825 2484 2947 2687 
Q 3069 2891 3069 3131 
Q 3069 3503 2766 3765 
Q 2463 4028 1881 4028 
Q 1569 4028 1319 3959 
L 1319 2331 
z
M 1319 306 
Q 1681 222 2034 222 
Q 2600 222 2897 476 
Q 3194 731 3194 1106 
Q 3194 1353 3059 1581 
Q 2925 1809 2622 1940 
Q 2319 2072 1872 2072 
Q 1678 2072 1540 2065 
Q 1403 2059 1319 2044 
L 1319 306 
z
" transform="scale(0.015625)"/>
      </defs>
      <use xlink:href="#TimesNewRomanPSMT-42"/>
      <use xlink:href="#TimesNewRomanPSMT-61" transform="translate(66.699219 0)"/>
      <use xlink:href="#TimesNewRomanPSMT-73" transform="translate(111.083984 0)"/>
      <use xlink:href="#TimesNewRomanPSMT-65" transform="translate(150 0)"/>
      <use xlink:href="#TimesNewRomanPSMT-6c" transform="translate(194.384766 0)"/>
      <use xlink:href="#TimesNewRomanPSMT-69" transform="translate(222.167969 0)"/>
      <use xlink:href="#TimesNewRomanPSMT-6e" transform="translate(249.951172 0)"/>
      <use xlink:href="#TimesNewRomanPSMT-65" transform="translate(299.951172 0)"/>
      <use xlink:href="#TimesNewRomanPSMT-20" transform="translate(344.335938 0)"/>
      <use xlink:href="#TimesNewRomanPSMT-28" transform="translate(369.335938 0)"/>
      <use xlink:href="#TimesNewRomanPSMT-30" transform="translate(402.636719 0)"/>
      <use xlink:href="#TimesNewRomanPSMT-2e" transform="translate(452.636719 0)"/>
      <use xlink:href="#TimesNewRomanPSMT-39" transform="translate(477.636719 0)"/>
      <use xlink:href="#TimesNewRomanPSMT-32" transform="translate(527.636719 0)"/>
      <use xlink:href="#TimesNewRomanPSMT-34" transform="translate(577.636719 0)"/>
      <use xlink:href="#TimesNewRomanPSMT-34" transform="translate(627.636719 0)"/>
      <use xlink:href="#TimesNewRomanPSMT-29" transform="translate(677.636719 0)"/>
     </g>
    </g>
    <g id="LineCollection_2">
     <path d="M 330.578594 52.007656 
L 330.578594 43.007656 
" style="fill: none; stroke: #000000; stroke-width: 0.9"/>
    </g>
    <g id="line2d_22">
     <g>
      <use xlink:href="#maa6543981f" x="330.578594" y="52.007656" style="stroke: #000000"/>
     </g>
    </g>
    <g id="line2d_23">
     <g>
      <use xlink:href="#maa6543981f" x="330.578594" y="43.007656" style="stroke: #000000"/>
     </g>
    </g>
    <g id="line2d_24">
     <path d="M 321.578594 47.507656 
L 339.578594 47.507656 
" style="fill: none; stroke: #000000; stroke-width: 1.2; stroke-linecap: square"/>
    </g>
    <g id="line2d_25">
     <g>
      <use xlink:href="#m8a2160c00c" x="330.578594" y="47.507656" style="fill: #045a8d; stroke: #000000"/>
     </g>
    </g>
    <g id="text_21">
     <!-- DP runs (mean ± std) -->
     <g transform="translate(346.778594 50.657656) scale(0.09 -0.09)">
      <defs>
       <path id="TimesNewRomanPSMT-6d" d="M 1050 2338 
Q 1363 2650 1419 2697 
Q 1559 2816 1721 2881 
Q 1884 2947 2044 2947 
Q 2313 2947 2506 2790 
Q 2700 2634 2766 2338 
Q 3088 2713 3309 2830 
Q 3531 2947 3766 2947 
Q 3994 2947 4170 2830 
Q 4347 2713 4450 2447 
Q 4519 2266 4519 1878 
L 4519 647 
Q 4519 378 4559 278 
Q 4591 209 4675 161 
Q 4759 113 4950 113 
L 4950 0 
L 3538 0 
L 3538 113 
L 3597 113 
Q 3781 113 3884 184 
Q 3956 234 3988 344 
Q 4000 397 4000 647 
L 4000 1878 
Q 4000 2228 3916 2372 
Q 3794 2572 3525 2572 
Q 3359 2572 3192 2489 
Q 3025 2406 2788 2181 
L 2781 2147 
L 2788 2013 
L 2788 647 
Q 2788 353 2820 281 
Q 2853 209 2943 161 
Q 3034 113 3253 113 
L 3253 0 
L 1806 0 
L 1806 113 
Q 2044 113 2133 169 
Q 2222 225 2256 338 
Q 2272 391 2272 647 
L 2272 1878 
Q 2272 2228 2169 2381 
Q 2031 2581 1784 2581 
Q 1616 2581 1450 2491 
Q 1191 2353 1050 2181 
L 1050 647 
Q 1050 366 1089 281 
Q 1128 197 1204 155 
Q 1281 113 1516 113 
L 1516 0 
L 100 0 
L 100 113 
Q 297 113 375 155 
Q 453 197 493 289 
Q 534 381 534 647 
L 534 1741 
Q 534 2213 506 2350 
Q 484 2453 437 2492 
Q 391 2531 309 2531 
Q 222 2531 100 2484 
L 53 2597 
L 916 2947 
L 1050 2947 
L 1050 2338 
z
" transform="scale(0.015625)"/>
       <path id="TimesNewRomanPSMT-b1" d="M 25 441 
L 25 694 
L 1581 694 
L 1581 2000 
L 25 2000 
L 25 2256 
L 1581 2256 
L 1581 3809 
L 1831 3809 
L 1831 2256 
L 3394 2256 
L 3394 2000 
L 1831 2000 
L 1831 694 
L 3397 694 
L 3397 441 
L 25 441 
z
" transform="scale(0.015625)"/>
       <path id="TimesNewRomanPSMT-64" d="M 2222 322 
Q 2013 103 1813 7 
Q 1613 -88 1381 -88 
Q 913 -88 563 304 
Q 213 697 213 1313 
Q 213 1928 600 2439 
Q 988 2950 1597 2950 
Q 1975 2950 2222 2709 
L 2222 3238 
Q 2222 3728 2198 3840 
Q 2175 3953 2125 3993 
Q 2075 4034 2000 4034 
Q 1919 4034 1784 3984 
L 1744 4094 
L 2597 4444 
L 2738 4444 
L 2738 1134 
Q 2738 631 2761 520 
Q 2784 409 2836 365 
Q 2888 322 2956 322 
Q 3041 322 3181 375 
L 3216 266 
L 2366 -88 
L 2222 -88 
L 2222 322 
z
M 2222 541 
L 2222 2016 
Q 2203 2228 2109 2403 
Q 2016 2578 1861 2667 
Q 1706 2756 1559 2756 
Q 1284 2756 1069 2509 
Q 784 2184 784 1559 
Q 784 928 1059 592 
Q 1334 256 1672 256 
Q 1956 256 2222 541 
z
" transform="scale(0.015625)"/>
      </defs>
      <use xlink:href="#TimesNewRomanPSMT-44"/>
      <use xlink:href="#TimesNewRomanPSMT-50" transform="translate(72.216797 0)"/>
      <use xlink:href="#TimesNewRomanPSMT-20" transform="translate(124.082031 0)"/>
      <use xlink:href="#TimesNewRomanPSMT-72" transform="translate(149.082031 0)"/>
      <use xlink:href="#TimesNewRomanPSMT-75" transform="translate(182.382812 0)"/>
      <use xlink:href="#TimesNewRomanPSMT-6e" transform="translate(232.382812 0)"/>
      <use xlink:href="#TimesNewRomanPSMT-73" transform="translate(282.382812 0)"/>
      <use xlink:href="#TimesNewRomanPSMT-20" transform="translate(321.298828 0)"/>
      <use xlink:href="#TimesNewRomanPSMT-28" transform="translate(346.298828 0)"/>
      <use xlink:href="#TimesNewRomanPSMT-6d" transform="translate(379.599609 0)"/>
      <use xlink:href="#TimesNewRomanPSMT-65" transform="translate(457.382812 0)"/>
      <use xlink:href="#TimesNewRomanPSMT-61" transform="translate(501.767578 0)"/>
      <use xlink:href="#TimesNewRomanPSMT-6e" transform="translate(546.152344 0)"/>
      <use xlink:href="#TimesNewRomanPSMT-20" transform="translate(596.152344 0)"/>
      <use xlink:href="#TimesNewRomanPSMT-b1" transform="translate(621.152344 0)"/>
      <use xlink:href="#TimesNewRomanPSMT-20" transform="translate(676.035156 0)"/>
      <use xlink:href="#TimesNewRomanPSMT-73" transform="translate(701.035156 0)"/>
      <use xlink:href="#TimesNewRomanPSMT-74" transform="translate(739.951172 0)"/>
      <use xlink:href="#TimesNewRomanPSMT-64" transform="translate(767.734375 0)"/>
      <use xlink:href="#TimesNewRomanPSMT-29" transform="translate(817.734375 0)"/>
     </g>
    </g>
   </g>
  </g>
  <g id="axes_2">
   <g id="patch_8">
    <path d="M 39.792813 90.9245 
L 147.504813 90.9245 
L 147.504813 23.5325 
L 39.792813 23.5325 
z
" style="fill: #ffffff"/>
   </g>
   <g id="PathCollection_25">
    <path d="M 79.107575 83.831408 
C 79.566921 83.831408 80.007514 83.648908 80.33232 83.324102 
C 80.657126 82.999296 80.839626 82.558702 80.839626 82.099357 
C 80.839626 81.640012 80.657126 81.199418 80.33232 80.874612 
C 80.007514 80.549806 79.566921 80.367306 79.107575 80.367306 
C 78.64823 80.367306 78.207637 80.549806 77.882831 80.874612 
C 77.558024 81.199418 77.375525 81.640012 77.375525 82.099357 
C 77.375525 82.558702 77.558024 82.999296 77.882831 83.324102 
C 78.207637 83.648908 78.64823 83.831408 79.107575 83.831408 
z
" clip-path="url(#p1225583d83)" style="fill: #2b8cbe; fill-opacity: 0.45"/>
   </g>
   <g id="PathCollection_26">
    <path d="M 79.130969 42.914837 
C 79.590314 42.914837 80.030908 42.732337 80.355714 42.407531 
C 80.68052 42.082724 80.86302 41.642131 80.86302 41.182786 
C 80.86302 40.72344 80.68052 40.282847 80.355714 39.958041 
C 80.030908 39.633235 79.590314 39.450735 79.130969 39.450735 
C 78.671624 39.450735 78.23103 39.633235 77.906224 39.958041 
C 77.581418 40.282847 77.398918 40.72344 77.398918 41.182786 
C 77.398918 41.642131 77.581418 42.082724 77.906224 42.407531 
C 78.23103 42.732337 78.671624 42.914837 79.130969 42.914837 
z
" clip-path="url(#p1225583d83)" style="fill: #2b8cbe; fill-opacity: 0.45"/>
   </g>
   <g id="PathCollection_27">
    <path d="M 79.085923 -17.256592 
C 79.545269 -17.256592 79.985862 -17.439092 80.310668 -17.763898 
C 80.635474 -18.088704 80.817974 -18.529298 80.817974 -18.988643 
C 80.817974 -19.447988 80.635474 -19.888582 80.310668 -20.213388 
C 79.985862 -20.538194 79.545269 -20.720694 79.085923 -20.720694 
C 78.626578 -20.720694 78.185985 -20.538194 77.861179 -20.213388 
C 77.536372 -19.888582 77.353873 -19.447988 77.353873 -18.988643 
C 77.353873 -18.529298 77.536372 -18.088704 77.861179 -17.763898 
C 78.185985 -17.439092 78.626578 -17.256592 79.085923 -17.256592 
z
" clip-path="url(#p1225583d83)" style="fill: #2b8cbe; fill-opacity: 0.45"/>
   </g>
   <g id="PathCollection_28">
    <path d="M 59.472716 83.831408 
C 59.932062 83.831408 60.372655 83.648908 60.697461 83.324102 
C 61.022267 82.999296 61.204767 82.558702 61.204767 82.099357 
C 61.204767 81.640012 61.022267 81.199418 60.697461 80.874612 
C 60.372655 80.549806 59.932062 80.367306 59.472716 80.367306 
C 59.013371 80.367306 58.572778 80.549806 58.247971 80.874612 
C 57.923165 81.199418 57.740665 81.640012 57.740665 82.099357 
C 57.740665 82.558702 57.923165 82.999296 58.247971 83.324102 
C 58.572778 83.648908 59.013371 83.831408 59.472716 83.831408 
z
" clip-path="url(#p1225583d83)" style="fill: #2b8cbe; fill-opacity: 0.45"/>
   </g>
   <g id="PathCollection_29">
    <path d="M 59.489905 42.914837 
C 59.94925 42.914837 60.389843 42.732337 60.71465 42.407531 
C 61.039456 42.082724 61.221955 41.642131 61.221955 41.182786 
C 61.221955 40.72344 61.039456 40.282847 60.71465 39.958041 
C 60.389843 39.633235 59.94925 39.450735 59.489905 39.450735 
C 59.030559 39.450735 58.589966 39.633235 58.26516 39.958041 
C 57.940354 40.282847 57.757854 40.72344 57.757854 41.182786 
C 57.757854 41.642131 57.940354 42.082724 58.26516 42.407531 
C 58.589966 42.732337 59.030559 42.914837 59.489905 42.914837 
z
" clip-path="url(#p1225583d83)" style="fill: #2b8cbe; fill-opacity: 0.45"/>
   </g>
   <g id="PathCollection_30">
    <path d="M 59.468732 -5.222306 
C 59.928077 -5.222306 60.36867 -5.404806 60.693477 -5.729612 
C 61.018283 -6.054418 61.200783 -6.495012 61.200783 -6.954357 
C 61.200783 -7.413702 61.018283 -7.854296 60.693477 -8.179102 
C 60.36867 -8.503908 59.928077 -8.686408 59.468732 -8.686408 
C 59.009386 -8.686408 58.568793 -8.503908 58.243987 -8.179102 
C 57.919181 -7.854296 57.736681 -7.413702 57.736681 -6.954357 
C 57.736681 -6.495012 57.919181 -6.054418 58.243987 -5.729612 
C 58.568793 -5.404806 59.009386 -5.222306 59.468732 -5.222306 
z
" clip-path="url(#p1225583d83)" style="fill: #2b8cbe; fill-opacity: 0.45"/>
   </g>
   <g id="PathCollection_31">
    <path d="M 50.282024 100.679408 
C 50.74137 100.679408 51.181963 100.496908 51.506769 100.172102 
C 51.831575 99.847296 52.014075 99.406702 52.014075 98.947357 
C 52.014075 98.488012 51.831575 98.047418 51.506769 97.722612 
C 51.181963 97.397806 50.74137 97.215306 50.282024 97.215306 
C 49.822679 97.215306 49.382086 97.397806 49.05728 97.722612 
C 48.732473 98.047418 48.549974 98.488012 48.549974 98.947357 
C 48.549974 99.406702 48.732473 99.847296 49.05728 100.172102 
C 49.382086 100.496908 49.822679 100.679408 50.282024 100.679408 
z
" clip-path="url(#p1225583d83)" style="fill: #2b8cbe; fill-opacity: 0.45"/>
   </g>
   <g id="PathCollection_32">
    <path d="M 50.308875 62.169694 
C 50.76822 62.169694 51.208814 61.987194 51.53362 61.662388 
C 51.858426 61.337582 52.040926 60.896988 52.040926 60.437643 
C 52.040926 59.978298 51.858426 59.537704 51.53362 59.212898 
C 51.208814 58.888092 50.76822 58.705592 50.308875 58.705592 
C 49.84953 58.705592 49.408936 58.888092 49.08413 59.212898 
C 48.759324 59.537704 48.576824 59.978298 48.576824 60.437643 
C 48.576824 60.896988 48.759324 61.337582 49.08413 61.662388 
C 49.408936 61.987194 49.84953 62.169694 50.308875 62.169694 
z
" clip-path="url(#p1225583d83)" style="fill: #2b8cbe; fill-opacity: 0.45"/>
   </g>
   <g id="PathCollection_33">
    <path d="M 50.270438 1.998265 
C 50.729784 1.998265 51.170377 1.815765 51.495183 1.490959 
C 51.819989 1.166153 52.002489 0.72556 52.002489 0.266214 
C 52.002489 -0.193131 51.819989 -0.633724 51.495183 -0.958531 
C 51.170377 -1.283337 50.729784 -1.465837 50.270438 -1.465837 
C 49.811093 -1.465837 49.3705 -1.283337 49.045694 -0.958531 
C 48.720887 -0.633724 48.538388 -0.193131 48.538388 0.266214 
C 48.538388 0.72556 48.720887 1.166153 49.045694 1.490959 
C 49.3705 1.815765 49.811093 1.998265 50.270438 1.998265 
z
" clip-path="url(#p1225583d83)" style="fill: #2b8cbe; fill-opacity: 0.45"/>
   </g>
   <g id="PathCollection_34">
    <path d="M 47.051059 83.831408 
C 47.510405 83.831408 47.950998 83.648908 48.275804 83.324102 
C 48.60061 82.999296 48.78311 82.558702 48.78311 82.099357 
C 48.78311 81.640012 48.60061 81.199418 48.275804 80.874612 
C 47.950998 80.549806 47.510405 80.367306 47.051059 80.367306 
C 46.591714 80.367306 46.151121 80.549806 45.826314 80.874612 
C 45.501508 81.199418 45.319009 81.640012 45.319009 82.099357 
C 45.319009 82.558702 45.501508 82.999296 45.826314 83.324102 
C 46.151121 83.648908 46.591714 83.831408 47.051059 83.831408 
z
" clip-path="url(#p1225583d83)" style="fill: #2b8cbe; fill-opacity: 0.45"/>
   </g>
   <g id="PathCollection_35">
    <path d="M 47.067197 52.542265 
C 47.526543 52.542265 47.967136 52.359765 48.291942 52.034959 
C 48.616748 51.710153 48.799248 51.26956 48.799248 50.810214 
C 48.799248 50.350869 48.616748 49.910276 48.291942 49.585469 
C 47.967136 49.260663 47.526543 49.078163 47.067197 49.078163 
C 46.607852 49.078163 46.167259 49.260663 45.842452 49.585469 
C 45.517646 49.910276 45.335146 50.350869 45.335146 50.810214 
C 45.335146 51.26956 45.517646 51.710153 45.842452 52.034959 
C 46.167259 52.359765 46.607852 52.542265 47.067197 52.542265 
z
" clip-path="url(#p1225583d83)" style="fill: #2b8cbe; fill-opacity: 0.45"/>
   </g>
   <g id="PathCollection_36">
    <path d="M 47.065265 26.066837 
C 47.52461 26.066837 47.965204 25.884337 48.29001 25.559531 
C 48.614816 25.234724 48.797316 24.794131 48.797316 24.334786 
C 48.797316 23.87544 48.614816 23.434847 48.29001 23.110041 
C 47.965204 22.785235 47.52461 22.602735 47.065265 22.602735 
C 46.60592 22.602735 46.165326 22.785235 45.84052 23.110041 
C 45.515714 23.434847 45.333214 23.87544 45.333214 24.334786 
C 45.333214 24.794131 45.515714 25.234724 45.84052 25.559531 
C 46.165326 25.884337 46.60592 26.066837 47.065265 26.066837 
z
" clip-path="url(#p1225583d83)" style="fill: #2b8cbe; fill-opacity: 0.45"/>
   </g>
   <g id="PathCollection_37">
    <path d="M 44.348145 71.797122 
C 44.80749 71.797122 45.248083 71.614622 45.57289 71.289816 
C 45.897696 70.96501 46.080195 70.524417 46.080195 70.065071 
C 46.080195 69.605726 45.897696 69.165133 45.57289 68.840327 
C 45.248083 68.51552 44.80749 68.333021 44.348145 68.333021 
C 43.888799 68.333021 43.448206 68.51552 43.1234 68.840327 
C 42.798594 69.165133 42.616094 69.605726 42.616094 70.065071 
C 42.616094 70.524417 42.798594 70.96501 43.1234 71.289816 
C 43.448206 71.614622 43.888799 71.797122 44.348145 71.797122 
z
" clip-path="url(#p1225583d83)" style="fill: #2b8cbe; fill-opacity: 0.45"/>
   </g>
   <g id="PathCollection_38">
    <path d="M 44.338709 110.306837 
C 44.798054 110.306837 45.238648 110.124337 45.563454 109.799531 
C 45.88826 109.474724 46.07076 109.034131 46.07076 108.574786 
C 46.07076 108.11544 45.88826 107.674847 45.563454 107.350041 
C 45.238648 107.025235 44.798054 106.842735 44.338709 106.842735 
C 43.879364 106.842735 43.43877 107.025235 43.113964 107.350041 
C 42.789158 107.674847 42.606658 108.11544 42.606658 108.574786 
C 42.606658 109.034131 42.789158 109.474724 43.113964 109.799531 
C 43.43877 110.124337 43.879364 110.306837 44.338709 110.306837 
z
" clip-path="url(#p1225583d83)" style="fill: #2b8cbe; fill-opacity: 0.45"/>
   </g>
   <g id="PathCollection_39">
    <path d="M 44.346918 26.066837 
C 44.806263 26.066837 45.246857 25.884337 45.571663 25.559531 
C 45.896469 25.234724 46.078969 24.794131 46.078969 24.334786 
C 46.078969 23.87544 45.896469 23.434847 45.571663 23.110041 
C 45.246857 22.785235 44.806263 22.602735 44.346918 22.602735 
C 43.887573 22.602735 43.446979 22.785235 43.122173 23.110041 
C 42.797367 23.434847 42.614867 23.87544 42.614867 24.334786 
C 42.614867 24.794131 42.797367 25.234724 43.122173 25.559531 
C 43.446979 25.884337 43.887573 26.066837 44.346918 26.066837 
z
" clip-path="url(#p1225583d83)" style="fill: #2b8cbe; fill-opacity: 0.45"/>
   </g>
   <g id="PathCollection_40">
    <path d="M 43.134235 57.355979 
C 43.59358 57.355979 44.034174 57.17348 44.35898 56.848673 
C 44.683786 56.523867 44.866286 56.083274 44.866286 55.623929 
C 44.866286 55.164583 44.683786 54.72399 44.35898 54.399184 
C 44.034174 54.074378 43.59358 53.891878 43.134235 53.891878 
C 42.67489 53.891878 42.234296 54.074378 41.90949 54.399184 
C 41.584684 54.72399 41.402184 55.164583 41.402184 55.623929 
C 41.402184 56.083274 41.584684 56.523867 41.90949 56.848673 
C 42.234296 57.17348 42.67489 57.355979 43.134235 57.355979 
z
" clip-path="url(#p1225583d83)" style="fill: #2b8cbe; fill-opacity: 0.45"/>
   </g>
   <g id="PathCollection_41">
    <path d="M 43.120624 117.527408 
C 43.579969 117.527408 44.020563 117.344908 44.345369 117.020102 
C 44.670175 116.695296 44.852675 116.254702 44.852675 115.795357 
C 44.852675 115.336012 44.670175 114.895418 44.345369 114.570612 
C 44.020563 114.245806 43.579969 114.063306 43.120624 114.063306 
C 42.661279 114.063306 42.220685 114.245806 41.895879 114.570612 
C 41.571073 114.895418 41.388573 115.336012 41.388573 115.795357 
C 41.388573 116.254702 41.571073 116.695296 41.895879 117.020102 
C 42.220685 117.344908 42.661279 117.527408 43.120624 117.527408 
z
" clip-path="url(#p1225583d83)" style="fill: #2b8cbe; fill-opacity: 0.45"/>
   </g>
   <g id="PathCollection_42">
    <path d="M 43.126541 69.390265 
C 43.585886 69.390265 44.02648 69.207765 44.351286 68.882959 
C 44.676092 68.558153 44.858592 68.11756 44.858592 67.658214 
C 44.858592 67.198869 44.676092 66.758276 44.351286 66.433469 
C 44.02648 66.108663 43.585886 65.926163 43.126541 65.926163 
C 42.667196 65.926163 42.226602 66.108663 41.901796 66.433469 
C 41.57699 66.758276 41.39449 67.198869 41.39449 67.658214 
C 41.39449 68.11756 41.57699 68.558153 41.901796 68.882959 
C 42.226602 69.207765 42.667196 69.390265 43.126541 69.390265 
z
" clip-path="url(#p1225583d83)" style="fill: #2b8cbe; fill-opacity: 0.45"/>
   </g>
   <g id="matplotlib.axis_3">
    <g id="xtick_4">
     <g id="line2d_26">
      <path d="M 39.792813 90.9245 
L 39.792813 23.5325 
" clip-path="url(#p1225583d83)" style="fill: none; stroke-dasharray: 1.48,0.64; stroke-dashoffset: 0; stroke: #b0b0b0; stroke-opacity: 0.35; stroke-width: 0.4"/>
     </g>
     <g id="line2d_27">
      <g>
       <use xlink:href="#mc7480aae09" x="39.792813" y="90.9245" style="stroke: #000000; stroke-width: 0.8"/>
      </g>
     </g>
     <g id="text_22">
      <!-- 0 -->
      <g transform="translate(37.542813 104.173875) scale(0.09 -0.09)">
       <use xlink:href="#TimesNewRomanPSMT-30"/>
      </g>
     </g>
    </g>
    <g id="xtick_5">
     <g id="line2d_28">
      <path d="M 82.877613 90.9245 
L 82.877613 23.5325 
" clip-path="url(#p1225583d83)" style="fill: none; stroke-dasharray: 1.48,0.64; stroke-dashoffset: 0; stroke: #b0b0b0; stroke-opacity: 0.35; stroke-width: 0.4"/>
     </g>
     <g id="line2d_29">
      <g>
       <use xlink:href="#mc7480aae09" x="82.877613" y="90.9245" style="stroke: #000000; stroke-width: 0.8"/>
      </g>
     </g>
     <g id="text_23">
      <!-- 2 -->
      <g transform="translate(80.627613 104.173875) scale(0.09 -0.09)">
       <use xlink:href="#TimesNewRomanPSMT-32"/>
      </g>
     </g>
    </g>
    <g id="xtick_6">
     <g id="line2d_30">
      <path d="M 125.962413 90.9245 
L 125.962413 23.5325 
" clip-path="url(#p1225583d83)" style="fill: none; stroke-dasharray: 1.48,0.64; stroke-dashoffset: 0; stroke: #b0b0b0; stroke-opacity: 0.35; stroke-width: 0.4"/>
     </g>
     <g id="line2d_31">
      <g>
       <use xlink:href="#mc7480aae09" x="125.962413" y="90.9245" style="stroke: #000000; stroke-width: 0.8"/>
      </g>
     </g>
     <g id="text_24">
      <!-- 4 -->
      <g transform="translate(123.712413 104.173875) scale(0.09 -0.09)">
       <use xlink:href="#TimesNewRomanPSMT-34"/>
      </g>
     </g>
    </g>
   </g>
   <g id="matplotlib.axis_4">
    <g id="ytick_6">
     <g id="line2d_32">
      <path d="M 39.792813 79.6925 
L 147.504813 79.6925 
" clip-path="url(#p1225583d83)" style="fill: none; stroke-dasharray: 1.48,0.64; stroke-dashoffset: 0; stroke: #b0b0b0; stroke-opacity: 0.35; stroke-width: 0.4"/>
     </g>
     <g id="line2d_33">
      <g>
       <use xlink:href="#mbdf69cc452" x="39.792813" y="79.6925" style="stroke: #000000; stroke-width: 0.8"/>
      </g>
     </g>
     <g id="text_25">
      <!-- 0.839 -->
      <g transform="translate(12.542813 82.817187) scale(0.09 -0.09)">
       <use xlink:href="#TimesNewRomanPSMT-30"/>
       <use xlink:href="#TimesNewRomanPSMT-2e" transform="translate(50 0)"/>
       <use xlink:href="#TimesNewRomanPSMT-38" transform="translate(75 0)"/>
       <use xlink:href="#TimesNewRomanPSMT-33" transform="translate(125 0)"/>
       <use xlink:href="#TimesNewRomanPSMT-39" transform="translate(175 0)"/>
      </g>
     </g>
    </g>
    <g id="ytick_7">
     <g id="line2d_34">
      <path d="M 39.792813 55.623929 
L 147.504813 55.623929 
" clip-path="url(#p1225583d83)" style="fill: none; stroke-dasharray: 1.48,0.64; stroke-dashoffset: 0; stroke: #b0b0b0; stroke-opacity: 0.35; stroke-width: 0.4"/>
     </g>
     <g id="line2d_35">
      <g>
       <use xlink:href="#mbdf69cc452" x="39.792813" y="55.623929" style="stroke: #000000; stroke-width: 0.8"/>
      </g>
     </g>
     <g id="text_26">
      <!-- 0.840 -->
      <g transform="translate(12.542813 58.748616) scale(0.09 -0.09)">
       <use xlink:href="#TimesNewRomanPSMT-30"/>
       <use xlink:href="#TimesNewRomanPSMT-2e" transform="translate(50 0)"/>
       <use xlink:href="#TimesNewRomanPSMT-38" transform="translate(75 0)"/>
       <use xlink:href="#TimesNewRomanPSMT-34" transform="translate(125 0)"/>
       <use xlink:href="#TimesNewRomanPSMT-30" transform="translate(175 0)"/>
      </g>
     </g>
    </g>
    <g id="ytick_8">
     <g id="line2d_36">
      <path d="M 39.792813 31.555357 
L 147.504813 31.555357 
" clip-path="url(#p1225583d83)" style="fill: none; stroke-dasharray: 1.48,0.64; stroke-dashoffset: 0; stroke: #b0b0b0; stroke-opacity: 0.35; stroke-width: 0.4"/>
     </g>
     <g id="line2d_37">
      <g>
       <use xlink:href="#mbdf69cc452" x="39.792813" y="31.555357" style="stroke: #000000; stroke-width: 0.8"/>
      </g>
     </g>
     <g id="text_27">
      <!-- 0.841 -->
      <g transform="translate(12.542813 34.680045) scale(0.09 -0.09)">
       <use xlink:href="#TimesNewRomanPSMT-30"/>
       <use xlink:href="#TimesNewRomanPSMT-2e" transform="translate(50 0)"/>
       <use xlink:href="#TimesNewRomanPSMT-38" transform="translate(75 0)"/>
       <use xlink:href="#TimesNewRomanPSMT-34" transform="translate(125 0)"/>
       <use xlink:href="#TimesNewRomanPSMT-31" transform="translate(175 0)"/>
      </g>
     </g>
    </g>
   </g>
   <g id="LineCollection_3">
    <path d="M 43.129595 111.532227 
L 43.129595 47.852773 
" clip-path="url(#p1225583d83)" style="fill: none; stroke: #000000; stroke-width: 0.8"/>
    <path d="M 44.347184 109.829758 
L 44.347184 25.48667 
" clip-path="url(#p1225583d83)" style="fill: none; stroke: #000000; stroke-width: 0.8"/>
    <path d="M 47.060078 81.330481 
L 47.060078 23.499091 
" clip-path="url(#p1225583d83)" style="fill: none; stroke: #000000; stroke-width: 0.8"/>
    <path d="M 50.280763 102.952315 
L 50.280763 3.481828 
" clip-path="url(#p1225583d83)" style="fill: none; stroke: #000000; stroke-width: 0.8"/>
    <path d="M 59.507832 83.351547 
L 59.507832 -1 
" clip-path="url(#p1225583d83)" style="fill: none; stroke: #000000; stroke-width: 0.8"/>
    <path d="M 79.107479 85.613214 
L 79.107479 -1 
" clip-path="url(#p1225583d83)" style="fill: none; stroke: #000000; stroke-width: 0.8"/>
   </g>
   <g id="line2d_38">
    <g clip-path="url(#p1225583d83)">
     <use xlink:href="#maa6543981f" x="43.129595" y="111.532227" style="stroke: #000000"/>
     <use xlink:href="#maa6543981f" x="44.347184" y="109.829758" style="stroke: #000000"/>
     <use xlink:href="#maa6543981f" x="47.060078" y="81.330481" style="stroke: #000000"/>
     <use xlink:href="#maa6543981f" x="50.280763" y="102.952315" style="stroke: #000000"/>
     <use xlink:href="#maa6543981f" x="59.507832" y="83.351547" style="stroke: #000000"/>
     <use xlink:href="#maa6543981f" x="79.107479" y="85.613214" style="stroke: #000000"/>
    </g>
   </g>
   <g id="line2d_39">
    <g clip-path="url(#p1225583d83)">
     <use xlink:href="#maa6543981f" x="43.129595" y="47.852773" style="stroke: #000000"/>
     <use xlink:href="#maa6543981f" x="44.347184" y="25.48667" style="stroke: #000000"/>
     <use xlink:href="#maa6543981f" x="47.060078" y="23.499091" style="stroke: #000000"/>
     <use xlink:href="#maa6543981f" x="50.280763" y="3.481828" style="stroke: #000000"/>
     <use xlink:href="#maa6543981f" x="54.736299" y="-1" style="stroke: #000000"/>
    </g>
   </g>
   <g id="line2d_40">
    <path d="M 43.129595 79.6925 
L 44.347184 67.658214 
L 47.060078 52.414786 
L 50.280763 53.217071 
L 59.507832 38.775929 
L 79.107479 34.7645 
" clip-path="url(#p1225583d83)" style="fill: none; stroke: #000000; stroke-width: 1.2; stroke-linecap: square"/>
    <defs>
     <path id="m867288d0f9" d="M 0 2.5 
C 0.663008 2.5 1.29895 2.236584 1.767767 1.767767 
C 2.236584 1.29895 2.5 0.663008 2.5 0 
C 2.5 -0.663008 2.236584 -1.29895 1.767767 -1.767767 
C 1.29895 -2.236584 0.663008 -2.5 0 -2.5 
C -0.663008 -2.5 -1.29895 -2.236584 -1.767767 -1.767767 
C -2.236584 -1.29895 -2.5 -0.663008 -2.5 0 
C -2.5 0.663008 -2.236584 1.29895 -1.767767 1.767767 
C -1.29895 2.236584 -0.663008 2.5 0 2.5 
z
" style="stroke: #000000"/>
    </defs>
    <g clip-path="url(#p1225583d83)">
     <use xlink:href="#m867288d0f9" x="43.129595" y="79.6925" style="fill: #045a8d; stroke: #000000"/>
     <use xlink:href="#m867288d0f9" x="44.347184" y="67.658214" style="fill: #045a8d; stroke: #000000"/>
     <use xlink:href="#m867288d0f9" x="47.060078" y="52.414786" style="fill: #045a8d; stroke: #000000"/>
     <use xlink:href="#m867288d0f9" x="50.280763" y="53.217071" style="fill: #045a8d; stroke: #000000"/>
     <use xlink:href="#m867288d0f9" x="59.507832" y="38.775929" style="fill: #045a8d; stroke: #000000"/>
     <use xlink:href="#m867288d0f9" x="79.107479" y="34.7645" style="fill: #045a8d; stroke: #000000"/>
    </g>
   </g>
   <g id="patch_9">
    <path d="M 39.792813 90.9245 
L 39.792813 23.5325 
" style="fill: none; stroke: #4c4c4c; stroke-width: 0.7; stroke-linejoin: miter; stroke-linecap: square"/>
   </g>
   <g id="patch_10">
    <path d="M 147.504813 90.9245 
L 147.504813 23.5325 
" style="fill: none; stroke: #4c4c4c; stroke-width: 0.7; stroke-linejoin: miter; stroke-linecap: square"/>
   </g>
   <g id="patch_11">
    <path d="M 39.792813 90.9245 
L 147.504813 90.9245 
" style="fill: none; stroke: #4c4c4c; stroke-width: 0.7; stroke-linejoin: miter; stroke-linecap: square"/>
   </g>
   <g id="patch_12">
    <path d="M 39.792813 23.5325 
L 147.504813 23.5325 
" style="fill: none; stroke: #4c4c4c; stroke-width: 0.7; stroke-linejoin: miter; stroke-linecap: square"/>
   </g>
   <g id="text_28">
    <!-- σ=4.0 -->
    <g transform="translate(49.129595 76.6925) scale(0.07 -0.07)">
     <use xlink:href="#TimesNewRomanPSMT-3c3"/>
     <use xlink:href="#TimesNewRomanPSMT-3d" transform="translate(53.90625 0)"/>
     <use xlink:href="#TimesNewRomanPSMT-34" transform="translate(110.302734 0)"/>
     <use xlink:href="#TimesNewRomanPSMT-2e" transform="translate(160.302734 0)"/>
     <use xlink:href="#TimesNewRomanPSMT-30" transform="translate(185.302734 0)"/>
    </g>
   </g>
   <g id="text_29">
    <!-- σ=3.0 -->
    <g transform="translate(50.347184 64.658214) scale(0.07 -0.07)">
     <use xlink:href="#TimesNewRomanPSMT-3c3"/>
     <use xlink:href="#TimesNewRomanPSMT-3d" transform="translate(53.90625 0)"/>
     <use xlink:href="#TimesNewRomanPSMT-33" transform="translate(110.302734 0)"/>
     <use xlink:href="#TimesNewRomanPSMT-2e" transform="translate(160.302734 0)"/>
     <use xlink:href="#TimesNewRomanPSMT-30" transform="translate(185.302734 0)"/>
    </g>
   </g>
   <g id="text_30">
    <!-- σ=2.0 -->
    <g transform="translate(53.060078 49.414786) scale(0.07 -0.07)">
     <use xlink:href="#TimesNewRomanPSMT-3c3"/>
     <use xlink:href="#TimesNewRomanPSMT-3d" transform="translate(53.90625 0)"/>
     <use xlink:href="#TimesNewRomanPSMT-32" transform="translate(110.302734 0)"/>
     <use xlink:href="#TimesNewRomanPSMT-2e" transform="translate(160.302734 0)"/>
     <use xlink:href="#TimesNewRomanPSMT-30" transform="translate(185.302734 0)"/>
    </g>
   </g>
   <g id="text_31">
    <!-- σ=1.5 -->
    <g transform="translate(56.280763 50.217071) scale(0.07 -0.07)">
     <use xlink:href="#TimesNewRomanPSMT-3c3"/>
     <use xlink:href="#TimesNewRomanPSMT-3d" transform="translate(53.90625 0)"/>
     <use xlink:href="#TimesNewRomanPSMT-31" transform="translate(110.302734 0)"/>
     <use xlink:href="#TimesNewRomanPSMT-2e" transform="translate(160.302734 0)"/>
     <use xlink:href="#TimesNewRomanPSMT-35" transform="translate(185.302734 0)"/>
    </g>
   </g>
   <g id="text_32">
    <!-- σ=1.0 -->
    <g transform="translate(65.507832 35.775929) scale(0.07 -0.07)">
     <use xlink:href="#TimesNewRomanPSMT-3c3"/>
     <use xlink:href="#TimesNewRomanPSMT-3d" transform="translate(53.90625 0)"/>
     <use xlink:href="#TimesNewRomanPSMT-31" transform="translate(110.302734 0)"/>
     <use xlink:href="#TimesNewRomanPSMT-2e" transform="translate(160.302734 0)"/>
     <use xlink:href="#TimesNewRomanPSMT-30" transform="translate(185.302734 0)"/>
    </g>
   </g>
   <g id="text_33">
    <!-- σ=0.75 -->
    <g transform="translate(85.107479 31.7645) scale(0.07 -0.07)">
     <use xlink:href="#TimesNewRomanPSMT-3c3"/>
     <use xlink:href="#TimesNewRomanPSMT-3d" transform="translate(53.90625 0)"/>
     <use xlink:href="#TimesNewRomanPSMT-30" transform="translate(110.302734 0)"/>
     <use xlink:href="#TimesNewRomanPSMT-2e" transform="translate(160.302734 0)"/>
     <use xlink:href="#TimesNewRomanPSMT-37" transform="translate(185.302734 0)"/>
     <use xlink:href="#TimesNewRomanPSMT-35" transform="translate(235.302734 0)"/>
    </g>
   </g>
  </g>
 </g>
 <defs>
  <clipPath id="pbffea6c477">
   <rect x="52.032813" y="23.5325" width="379.44" height="199.584"/>
  </clipPath>
  <clipPath id="p1225583d83">
   <rect x="39.792813" y="23.5325" width="107.712" height="67.392"/>
  </clipPath>
 </defs>
</svg>
